<svg width="71" height="71" viewBox="0 0 71 71" fill="none" xmlns="http://www.w3.org/2000/svg">
<path d="M56.9247 15.9257L53.5963 12.5973L50.2679 15.9257L48.7212 14.379L53.5963 9.50391L58.4714 14.379L56.9247 15.9257Z" fill="#0D0D0D"/>
<path d="M52.5022 11.5972H54.6898V23.629H52.5022V11.5972Z" fill="#0D0D0D"/>
<path d="M59.0652 37.8481H56.8776V33.1444C65.1302 31.46 70.7669 23.8001 69.9199 15.4199C69.0733 7.04012 62.0192 0.662109 53.5962 0.662109C45.1732 0.662109 38.119 7.04012 37.2725 15.4199C36.4255 23.8001 42.0622 31.46 50.3148 33.1444V37.8481H48.1272V68.4745H43.752V33.4729H32.814V68.4745H28.4388V42.2233H17.5008V68.4745H13.1256V53.1613H2.1876V68.4745H0V70.6621H70.0032V68.4745H59.0652V37.8481ZM10.938 68.4745H4.3752V55.3489H10.938V68.4745ZM26.2512 68.4745H19.6884V44.4109H26.2512V68.4745ZM41.5644 68.4745H35.0016V35.6605H41.5644V68.4745ZM39.3768 17.0659C39.3768 9.4766 45.3366 3.22517 52.9174 2.86306C60.4976 2.50042 67.0267 8.15528 67.751 15.7093C68.4746 23.2639 63.1386 30.0558 55.6273 31.1395L54.69 31.2741V37.8481H52.5024V31.2741L51.5651 31.1395C44.5836 30.1028 39.4056 24.1238 39.3768 17.0659ZM56.8776 68.4745H50.3148V40.0357H56.8776V68.4745Z" fill="#0D0D0D"/>
<path d="M65.6278 17.066C65.6278 10.4209 60.2411 5.03418 53.596 5.03418C46.951 5.03418 41.5642 10.4209 41.5642 17.066C41.5642 23.711 46.951 29.0978 53.596 29.0978C60.2379 29.0898 65.6198 23.7078 65.6278 17.066ZM43.7518 17.066C43.7518 11.629 48.1591 7.22178 53.596 7.22178C59.033 7.22178 63.4402 11.629 63.4402 17.066C63.4402 22.5024 59.033 26.9102 53.596 26.9102C48.1617 26.9038 43.7577 22.5003 43.7518 17.066Z" fill="#0D0D0D"/>
<path d="M15.7417 37.8487H23.4234L32.8147 28.4574V31.2859H35.0023V24.7231H28.4395V26.9107H31.268L22.5176 35.6611H14.8861L0.351562 49.0773L1.83738 50.6833L15.7417 37.8487Z" fill="#0D0D0D"/>
<path d="M63.4402 37.8481H70.003V40.0357H63.4402V37.8481Z" fill="#0D0D0D"/>
<path d="M63.4402 42.2231H70.003V44.4107H63.4402V42.2231Z" fill="#0D0D0D"/>
<path d="M63.4402 46.5986H70.003V48.7862H63.4402V46.5986Z" fill="#0D0D0D"/>
<path d="M63.4402 50.9736H70.003V53.1612H63.4402V50.9736Z" fill="#0D0D0D"/>
<path d="M63.4402 55.3486H70.003V57.5362H63.4402V55.3486Z" fill="#0D0D0D"/>
<path d="M63.4402 59.7241H70.003V61.9117H63.4402V59.7241Z" fill="#0D0D0D"/>
<path d="M63.4402 64.0996H70.003V66.2872H63.4402V64.0996Z" fill="#0D0D0D"/>
</svg>
