<svg width="76" height="75" viewBox="0 0 76 75" fill="none" xmlns="http://www.w3.org/2000/svg">
<path d="M74.25 39.9995C73.9185 39.9995 73.6005 40.1312 73.3661 40.3656C73.1317 40.6 73 40.918 73 41.2495V53.7495C73 54.7441 72.6049 55.6979 71.9016 56.4012C71.1984 57.1044 70.2446 57.4995 69.25 57.4995H8C6.67392 57.4995 5.40215 56.9727 4.46447 56.035C3.52678 55.0974 3 53.8256 3 52.4995V13.7495C3 12.755 3.39509 11.8011 4.09835 11.0979C4.80161 10.3946 5.75544 9.99951 6.75 9.99951H28C28.3315 9.99951 28.6495 9.86782 28.8839 9.63339C29.1183 9.39897 29.25 9.08103 29.25 8.74951C29.25 8.41799 29.1183 8.10005 28.8839 7.86563C28.6495 7.63121 28.3315 7.49951 28 7.49951H6.75C5.09301 7.5015 3.50445 8.16061 2.33277 9.33229C1.1611 10.504 0.501985 12.0925 0.5 13.7495V52.4995C0.501986 54.488 1.2928 56.3945 2.69889 57.8006C4.10498 59.2067 6.01149 59.9975 8 59.9995H23.6812C22.3765 62.8562 20.02 65.0995 17.1025 66.262L14.01 67.4995H11.75C10.7554 67.4995 9.80161 67.8946 9.09835 68.5979C8.39509 69.3011 8 70.255 8 71.2495V73.7495C8 74.081 8.1317 74.399 8.36612 74.6334C8.60054 74.8678 8.91848 74.9995 9.25 74.9995H29.25C29.5815 74.9995 29.8995 74.8678 30.1339 74.6334C30.3683 74.399 30.5 74.081 30.5 73.7495C30.5 73.418 30.3683 73.1 30.1339 72.8656C29.8995 72.6312 29.5815 72.4995 29.25 72.4995H10.5V71.2495C10.5 70.918 10.6317 70.6 10.8661 70.3656C11.1005 70.1312 11.4185 69.9995 11.75 69.9995H64.25C64.5815 69.9995 64.8995 70.1312 65.1339 70.3656C65.3683 70.6 65.5 70.918 65.5 71.2495V72.4995H34.25C33.9185 72.4995 33.6005 72.6312 33.3661 72.8656C33.1317 73.1 33 73.418 33 73.7495C33 74.081 33.1317 74.399 33.3661 74.6334C33.6005 74.8678 33.9185 74.9995 34.25 74.9995H66.75C67.0815 74.9995 67.3995 74.8678 67.6339 74.6334C67.8683 74.399 68 74.081 68 73.7495V71.2495C68 70.255 67.6049 69.3011 66.9016 68.5979C66.1984 67.8946 65.2446 67.4995 64.25 67.4995H61.99L58.8975 66.262C55.98 65.0995 53.6235 62.8562 52.3188 59.9995H69.25C70.907 59.9975 72.4956 59.3384 73.6672 58.1667C74.8389 56.9951 75.498 55.4065 75.5 53.7495V41.2495C75.5 40.918 75.3683 40.6 75.1339 40.3656C74.8995 40.1312 74.5815 39.9995 74.25 39.9995ZM55.79 67.4995H20.21C23.0656 65.7755 25.2488 63.1302 26.4 59.9995H49.6C50.7512 63.1302 52.9344 65.7755 55.79 67.4995Z" fill="#0D0D0D"/>
<path d="M69.25 7.49951H45.5C45.1685 7.49951 44.8505 7.63121 44.6161 7.86563C44.3817 8.10005 44.25 8.41799 44.25 8.74951C44.25 9.08103 44.3817 9.39897 44.6161 9.6334C44.8505 9.86782 45.1685 9.99951 45.5 9.99951H69.25C70.2446 9.99951 71.1984 10.3946 71.9016 11.0979C72.6049 11.8011 73 12.755 73 13.7495V36.2495C73 36.581 73.1317 36.899 73.3661 37.1334C73.6005 37.3678 73.9185 37.4995 74.25 37.4995C74.5815 37.4995 74.8995 37.3678 75.1339 37.1334C75.3683 36.899 75.5 36.581 75.5 36.2495V13.7495C75.498 12.0925 74.8389 10.504 73.6672 9.33229C72.4956 8.16061 70.907 7.5015 69.25 7.49951Z" fill="#0D0D0D"/>
<path d="M23.079 14.5613L20.1115 22.4738C19.9515 22.9017 19.8793 23.3574 19.8993 23.8139C19.9193 24.2703 20.031 24.718 20.2278 25.1303C20.4247 25.5426 20.7025 25.911 21.0448 26.2135C21.3871 26.5161 21.7869 26.7466 22.2202 26.8913C22.9538 27.1319 23.7472 27.1171 24.4713 26.8493C25.1954 26.5815 25.8074 26.0764 26.2077 25.4163L28.7077 21.25H30.5002C30.5002 21.5815 30.6319 21.8995 30.8664 22.1339C31.1008 22.3683 31.4187 22.5 31.7502 22.5C32.0818 22.5 32.3997 22.3683 32.6341 22.1339C32.8685 21.8995 33.0002 21.5815 33.0002 21.25V20C33.0002 19.6685 32.8685 19.3505 32.6341 19.1161C32.3997 18.8817 32.0818 18.75 31.7502 18.75H28.0002C27.7846 18.75 27.5725 18.8059 27.3848 18.9121C27.1971 19.0184 27.0401 19.1714 26.929 19.3563L24.0652 24.125C23.9597 24.2997 23.7979 24.4333 23.6065 24.5039C23.415 24.5746 23.2052 24.578 23.0115 24.5138C22.8968 24.4757 22.791 24.4149 22.7004 24.335C22.6097 24.2551 22.5361 24.1577 22.484 24.0488C22.4318 23.9398 22.4022 23.8214 22.3968 23.7007C22.3914 23.58 22.4105 23.4594 22.4527 23.3463L25.1665 16.11L31.854 15H41.3115L47.219 19.7262C47.3525 19.833 47.5064 19.9113 47.6713 19.9562C47.8362 20.0012 48.0086 20.0118 48.1777 19.9875L54.124 19.1375C54.295 19.1128 54.4693 19.1254 54.635 19.1744C54.8007 19.2233 54.9539 19.3076 55.084 19.4213C55.2156 19.5336 55.3211 19.6734 55.393 19.8308C55.4649 19.9882 55.5015 20.1594 55.5002 20.3325C55.4998 20.6263 55.3923 20.9098 55.1979 21.13C55.0035 21.3502 54.7354 21.492 54.444 21.5287L47.024 22.4562L42.399 19.6787C42.2092 19.5635 41.9922 19.5009 41.7702 19.4974C41.5483 19.4938 41.3294 19.5494 41.136 19.6585C40.9427 19.7676 40.7819 19.9262 40.6701 20.1181C40.5584 20.3099 40.4998 20.528 40.5002 20.75V25H31.7502C31.4545 25.0001 31.1684 25.105 30.9428 25.2961C30.7171 25.4872 30.5665 25.7521 30.5177 26.0437L29.4102 32.6875L23.9102 33.75H19.2502C18.9187 33.75 18.6008 33.8817 18.3664 34.1161C18.1319 34.3505 18.0002 34.6685 18.0002 35V43.75C18.0002 44.0815 18.1319 44.3995 18.3664 44.6339C18.6008 44.8683 18.9187 45 19.2502 45C20.5009 44.9976 21.7221 44.6199 22.7559 43.916C23.7897 43.212 24.5885 42.2141 25.049 41.0513L35.6252 39.9937C35.8352 39.9727 36.0365 39.8989 36.2103 39.7791C36.384 39.6594 36.5246 39.4975 36.619 39.3087L39.809 32.9275L43.1252 34.5837L44.2702 41.4587C44.3195 41.7495 44.47 42.0135 44.695 42.2041C44.9201 42.3946 45.2053 42.4994 45.5002 42.5H49.2502C50.0256 42.5009 50.7817 42.7417 51.4148 43.1893C52.0479 43.6369 52.527 44.2694 52.7865 45H45.5002C45.1687 45 44.8508 45.1317 44.6164 45.3661C44.3819 45.6005 44.2502 45.9185 44.2502 46.25C44.2502 46.5815 44.3819 46.8995 44.6164 47.1339C44.8508 47.3683 45.1687 47.5 45.5002 47.5H54.2502C54.5818 47.5 54.8997 47.3683 55.1341 47.1339C55.3685 46.8995 55.5002 46.5815 55.5002 46.25C55.4974 44.9958 55.1172 43.7714 54.4092 42.7361C53.7012 41.7009 52.698 40.9025 51.5302 40.445L50.4927 31.1125C50.4727 30.9311 50.4132 30.7564 50.3184 30.6004C50.2236 30.4445 50.0958 30.3113 49.944 30.21L43.0002 25.5812V22.9562L46.1065 24.82C46.3461 24.9648 46.6276 25.0243 46.9052 24.9887L54.754 24.0088C55.2414 23.9502 55.7123 23.7953 56.1394 23.5532C56.5665 23.3111 56.9412 22.9866 57.2418 22.5985C57.5424 22.2104 57.7629 21.7664 57.8905 21.2924C58.0181 20.8183 58.0503 20.3236 57.9851 19.8371C57.92 19.3505 57.7588 18.8817 57.511 18.4579C57.2631 18.0342 56.9336 17.6639 56.5415 17.3685C56.1493 17.0732 55.7024 16.8587 55.2267 16.7375C54.751 16.6163 54.2559 16.5908 53.7702 16.6625L48.359 17.435L42.5315 12.7725C42.3096 12.5956 42.034 12.4995 41.7502 12.5H41.0552C41.5051 11.7433 41.7451 10.8803 41.7502 10V1.25C41.7502 0.918479 41.6185 0.600537 41.3841 0.366116C41.1497 0.131696 40.8318 0 40.5002 0H38.0002C36.3433 0.00198482 34.7547 0.661102 33.583 1.83277C32.4113 3.00445 31.7522 4.59301 31.7502 6.25V10C31.7554 10.8803 31.9953 11.7433 32.4452 12.5H31.7502C31.6815 12.4996 31.6129 12.5054 31.5452 12.5175L24.0452 13.7675C23.8287 13.8033 23.6254 13.8955 23.4557 14.0349C23.2861 14.1742 23.1562 14.3558 23.079 14.5613ZM23.0002 38.75C22.9993 39.5253 22.7585 40.2814 22.3109 40.9145C21.8634 41.5476 21.2309 42.0268 20.5002 42.2862V36.25H23.0002V38.75ZM48.9652 40H46.559L45.4827 33.5437C45.4503 33.3493 45.3724 33.1653 45.2553 33.0067C45.1382 32.8481 44.9853 32.7194 44.809 32.6312L39.809 30.1312C39.6621 30.0578 39.5022 30.014 39.3383 30.0024C39.1745 29.9908 39.01 30.0116 38.8542 30.0636C38.6984 30.1156 38.5544 30.1978 38.4304 30.3055C38.3064 30.4132 38.2048 30.5443 38.1315 30.6912L34.6915 37.575L25.5002 38.5V36L30.7365 34.9875C30.9876 34.9399 31.2181 34.8165 31.3969 34.6339C31.5757 34.4513 31.6942 34.2183 31.7365 33.9663L32.809 27.5H41.3752L48.0765 31.9675L48.9652 40ZM38.0002 2.5H39.2502V5H34.464C34.7235 4.26936 35.2026 3.63689 35.8357 3.1893C36.4688 2.74172 37.2249 2.50095 38.0002 2.5ZM34.2502 10V7.5H39.2502V10C39.2502 10.663 38.9869 11.2989 38.518 11.7678C38.0492 12.2366 37.4133 12.5 36.7502 12.5C36.0872 12.5 35.4513 12.2366 34.9825 11.7678C34.5136 11.2989 34.2502 10.663 34.2502 10Z" fill="#0D0D0D"/>
<path d="M25.5 47.5C24.7272 47.5032 23.9742 47.7451 23.3441 48.1926C22.714 48.6401 22.2376 49.2714 21.98 50H14.25C13.9185 50 13.6005 50.1317 13.3661 50.3661C13.1317 50.6005 13 50.9185 13 51.25C13 51.5815 13.1317 51.8995 13.3661 52.1339C13.6005 52.3683 13.9185 52.5 14.25 52.5H21.98C22.2346 53.2307 22.7102 53.864 23.3409 54.3122C23.9717 54.7604 24.7262 55.0012 25.5 55.0012C26.2738 55.0012 27.0283 54.7604 27.6591 54.3122C28.2898 53.864 28.7654 53.2307 29.02 52.5H64.25C64.5815 52.5 64.8995 52.3683 65.1339 52.1339C65.3683 51.8995 65.5 51.5815 65.5 51.25C65.5 50.9185 65.3683 50.6005 65.1339 50.3661C64.8995 50.1317 64.5815 50 64.25 50H29.02C28.7624 49.2714 28.286 48.6401 27.6559 48.1926C27.0258 47.7451 26.2728 47.5032 25.5 47.5ZM25.5 52.5C25.2528 52.5 25.0111 52.4267 24.8055 52.2893C24.6 52.152 24.4398 51.9568 24.3451 51.7284C24.2505 51.4999 24.2258 51.2486 24.274 51.0061C24.3222 50.7637 24.4413 50.5409 24.6161 50.3661C24.7909 50.1913 25.0137 50.0722 25.2561 50.024C25.4986 49.9758 25.7499 50.0005 25.9784 50.0952C26.2068 50.1898 26.402 50.35 26.5393 50.5555C26.6767 50.7611 26.75 51.0028 26.75 51.25C26.75 51.5815 26.6183 51.8995 26.3839 52.1339C26.1495 52.3683 25.8315 52.5 25.5 52.5Z" fill="#0D0D0D"/>
<path d="M69.25 46.25C69.5815 46.25 69.8995 46.1183 70.1339 45.8839C70.3683 45.6495 70.5 45.3315 70.5 45V25C70.5 24.6685 70.3683 24.3505 70.1339 24.1161C69.8995 23.8817 69.5815 23.75 69.25 23.75H64.25C63.9185 23.75 63.6005 23.8817 63.3661 24.1161C63.1317 24.3505 63 24.6685 63 25V45C63 45.3315 63.1317 45.6495 63.3661 45.8839C63.6005 46.1183 63.9185 46.25 64.25 46.25H69.25ZM65.5 36.25H68V38.75H65.5V36.25ZM68 33.75H65.5V31.25H68V33.75ZM68 43.75H65.5V41.25H68V43.75ZM65.5 26.25H68V28.75H65.5V26.25Z" fill="#0D0D0D"/>
<path d="M6.75 23.7495H11.75C12.0815 23.7495 12.3995 23.6178 12.6339 23.3834C12.8683 23.149 13 22.831 13 22.4995C13 22.168 12.8683 21.85 12.6339 21.6156C12.3995 21.3812 12.0815 21.2495 11.75 21.2495H6.75C6.41848 21.2495 6.10054 21.3812 5.86612 21.6156C5.6317 21.85 5.5 22.168 5.5 22.4995C5.5 22.831 5.6317 23.149 5.86612 23.3834C6.10054 23.6178 6.41848 23.7495 6.75 23.7495Z" fill="#0D0D0D"/>
<path d="M6.75 28.7495H11.75C12.0815 28.7495 12.3995 28.6178 12.6339 28.3834C12.8683 28.149 13 27.831 13 27.4995C13 27.168 12.8683 26.85 12.6339 26.6156C12.3995 26.3812 12.0815 26.2495 11.75 26.2495H6.75C6.41848 26.2495 6.10054 26.3812 5.86612 26.6156C5.6317 26.85 5.5 27.168 5.5 27.4995C5.5 27.831 5.6317 28.149 5.86612 28.3834C6.10054 28.6178 6.41848 28.7495 6.75 28.7495Z" fill="#0D0D0D"/>
<path d="M13 32.5C13 32.1685 12.8683 31.8505 12.6339 31.6161C12.3995 31.3817 12.0815 31.25 11.75 31.25H6.75C6.41848 31.25 6.10054 31.3817 5.86612 31.6161C5.6317 31.8505 5.5 32.1685 5.5 32.5C5.5 32.8315 5.6317 33.1495 5.86612 33.3839C6.10054 33.6183 6.41848 33.75 6.75 33.75H11.75C12.0815 33.75 12.3995 33.6183 12.6339 33.3839C12.8683 33.1495 13 32.8315 13 32.5Z" fill="#0D0D0D"/>
<path d="M11.75 37.5C11.75 37.1685 11.6183 36.8505 11.3839 36.6161C11.1495 36.3817 10.8315 36.25 10.5 36.25H6.75C6.41848 36.25 6.10054 36.3817 5.86612 36.6161C5.6317 36.8505 5.5 37.1685 5.5 37.5C5.5 37.8315 5.6317 38.1495 5.86612 38.3839C6.10054 38.6183 6.41848 38.75 6.75 38.75H10.5C10.8315 38.75 11.1495 38.6183 11.3839 38.3839C11.6183 38.1495 11.75 37.8315 11.75 37.5Z" fill="#0D0D0D"/>
<path d="M6.75 41.25C6.41848 41.25 6.10054 41.3817 5.86612 41.6161C5.6317 41.8505 5.5 42.1685 5.5 42.5C5.5 42.8315 5.6317 43.1495 5.86612 43.3839C6.10054 43.6183 6.41848 43.75 6.75 43.75H9.25C9.58152 43.75 9.89946 43.6183 10.1339 43.3839C10.3683 43.1495 10.5 42.8315 10.5 42.5C10.5 42.1685 10.3683 41.8505 10.1339 41.6161C9.89946 41.3817 9.58152 41.25 9.25 41.25H6.75Z" fill="#0D0D0D"/>
</svg>
