<svg width="69" height="70" viewBox="0 0 69 70" fill="none" xmlns="http://www.w3.org/2000/svg">
<path d="M3.63121 32.816H16.8052C18.7932 32.816 20.4172 31.192 20.4172 29.204V16.03C20.4172 14.042 18.7932 12.418 16.8052 12.418H3.63121C1.64321 12.418 0.0192054 14.042 0.0192054 16.03V29.204C0.0192054 31.206 1.64321 32.816 3.63121 32.816ZM1.97921 16.03C1.97921 15.12 2.72121 14.378 3.63121 14.378H16.8052C17.7152 14.378 18.4572 15.12 18.4572 16.03V29.204C18.4572 30.114 17.7152 30.856 16.8052 30.856H3.63121C2.72121 30.856 1.97921 30.114 1.97921 29.204V16.03ZM10.2252 28C13.1932 28 15.6012 25.592 15.6012 22.624C15.6012 19.656 13.1932 17.248 10.2252 17.248C7.25721 17.248 4.84921 19.656 4.84921 22.624C4.84921 25.592 7.25721 28 10.2252 28ZM10.2252 19.208C12.1152 19.208 13.6412 20.734 13.6412 22.624C13.6412 24.514 12.1012 26.04 10.2252 26.04C8.34921 26.04 6.80921 24.5 6.80921 22.624C6.80921 20.748 8.33521 19.208 10.2252 19.208ZM55.0252 46.76H39.8212C37.6092 46.76 35.8032 48.566 35.8032 50.778V65.982C35.8032 68.194 37.6092 70 39.8212 70H55.0252C57.2372 70 59.0432 68.194 59.0432 65.982V50.778C59.0432 48.566 57.2372 46.76 55.0252 46.76ZM57.0832 65.982C57.0832 67.116 56.1592 68.04 55.0252 68.04H39.8212C38.6872 68.04 37.7632 67.116 37.7632 65.982V50.778C37.7632 49.644 38.6872 48.72 39.8212 48.72H55.0252C56.1592 48.72 57.0832 49.644 57.0832 50.778V65.982ZM52.5192 53.354L48.2632 50.89C47.9552 50.708 47.5912 50.708 47.2832 50.89C46.9752 51.072 46.7932 51.394 46.7932 51.744V59.43C46.3452 59.206 45.8272 59.08 45.2952 59.08C43.3912 59.08 41.8372 60.634 41.8372 62.538C41.8372 64.442 43.3912 65.996 45.2952 65.996C47.1992 65.996 48.7532 64.442 48.7532 62.538C48.7532 62.44 48.7532 62.328 48.7392 62.23C48.7532 62.174 48.7532 62.118 48.7532 62.076V53.438L51.5392 55.048C52.0152 55.314 52.6032 55.16 52.8832 54.684C53.1632 54.208 52.9952 53.62 52.5192 53.354ZM45.2952 64.036C44.4692 64.036 43.7972 63.364 43.7972 62.538C43.7972 61.712 44.4692 61.04 45.2952 61.04C46.1212 61.04 46.7932 61.712 46.7932 62.538C46.7932 63.364 46.1212 64.036 45.2952 64.036ZM32.0512 46.326H27.8372H19.3812H10.8972H9.56721L31.2952 40.502C31.5472 40.432 31.7572 40.278 31.8972 40.04C32.0372 39.802 32.0652 39.55 31.9952 39.298L30.9592 35.462C30.4552 33.558 28.4952 32.424 26.5912 32.942L20.5992 34.538L12.4232 36.736L2.65121 39.34C1.72721 39.592 0.957205 40.18 0.481205 41.006C0.00520543 41.832 -0.120795 42.798 0.117205 43.708L1.11121 47.418V66.416C1.11121 68.376 2.70721 69.986 4.68121 69.986H29.4332C31.4072 69.986 33.0032 68.39 33.0032 66.416V47.306C33.0312 46.76 32.5832 46.326 32.0512 46.326ZM31.0712 52.878H25.1492L28.3272 48.272H31.0712V52.878ZM16.6792 52.878L19.8572 48.272H25.9332L22.7552 52.878H16.6792ZM8.20921 52.878L11.3872 48.272H17.4772L14.2992 52.878H8.20921ZM3.09921 52.878V48.272H9.02121L5.8432 52.878H3.09921ZM12.4372 38.752L16.6932 42.378L10.8132 43.96L6.54321 40.334L12.4372 38.752ZM20.6132 36.568L24.8692 40.194L18.9892 41.776L14.7332 38.15L20.6132 36.568ZM27.0812 34.832C27.2212 34.79 27.3612 34.776 27.5012 34.776C28.2152 34.776 28.8592 35.252 29.0552 35.966L29.8252 38.864L27.1792 39.578L22.9232 35.952L27.0812 34.832ZM2.18921 41.986C2.39921 41.608 2.74921 41.342 3.16921 41.23L4.26121 40.936L8.53121 44.562L2.81921 46.088L2.04921 43.19C1.92321 42.798 1.97921 42.364 2.18921 41.986ZM29.4612 68.04H4.69521C3.81321 68.04 3.08521 67.326 3.08521 66.43V54.838H6.33321H14.7892H23.2452H31.0292V66.43C31.0712 67.326 30.3432 68.04 29.4612 68.04ZM21.7052 60.774L14.7052 56.728C14.3972 56.546 14.0332 56.546 13.7252 56.728C13.4172 56.91 13.2352 57.232 13.2352 57.582V65.66C13.2352 66.01 13.4172 66.332 13.7252 66.514C13.8792 66.598 14.0472 66.64 14.2152 66.64C14.3832 66.64 14.5512 66.598 14.7052 66.514L21.7052 62.468C22.0132 62.286 22.1952 61.964 22.1952 61.614C22.1952 61.264 21.9992 60.942 21.7052 60.774ZM15.1812 63.966V59.276L19.2412 61.614L15.1812 63.966ZM38.2672 34.664C37.8332 35.14 37.5952 35.784 37.5952 36.414C37.5952 36.96 37.7772 37.52 38.0992 37.982C37.7632 38.444 37.5952 39.004 37.5952 39.55C37.5952 40.782 38.4772 42.098 40.1292 42.098H40.4932L41.3052 43.302C41.9352 44.24 42.9432 44.772 44.0772 44.772H47.6052C48.7252 44.772 49.7472 44.24 50.3772 43.302L51.1892 42.098H51.5532C53.1912 42.098 54.0872 40.782 54.0872 39.55C54.0872 39.004 53.9052 38.444 53.5832 37.982C53.9192 37.52 54.0872 36.96 54.0872 36.414C54.0872 35.798 53.8632 35.168 53.4432 34.692C53.5132 34.58 53.5972 34.468 53.6812 34.356C55.9912 31.08 58.5952 27.37 58.5952 23.044C58.5952 16.016 52.8692 10.29 45.8412 10.29C38.8132 10.29 33.0872 16.016 33.0872 23.044C33.0872 27.342 35.6772 30.996 37.9592 34.216C38.0572 34.37 38.1692 34.524 38.2672 34.664ZM52.1132 36.414C52.1132 36.624 52.0432 37.002 51.5392 37.002H40.1152C39.6252 37.002 39.5412 36.638 39.5412 36.414C39.5412 36.204 39.6112 35.826 40.1152 35.826H51.5392C52.0432 35.826 52.1132 36.19 52.1132 36.414ZM48.7532 42.182C48.4872 42.574 48.0952 42.784 47.6192 42.784H44.0912C43.6152 42.784 43.2232 42.574 42.9572 42.182L42.8872 42.07H48.8372L48.7532 42.182ZM51.5532 40.124H40.1292C39.6392 40.124 39.5552 39.76 39.5552 39.536C39.5552 39.326 39.6252 38.948 40.1292 38.948H51.5532C52.0432 38.948 52.1272 39.312 52.1272 39.536C52.1132 39.76 52.0432 40.124 51.5532 40.124ZM45.8412 12.25C51.7912 12.25 56.6352 17.094 56.6352 23.044C56.6352 26.754 54.3112 30.044 52.0712 33.236C51.9172 33.446 51.7772 33.67 51.6232 33.88H40.1012C39.9192 33.614 39.7372 33.362 39.5552 33.096C37.3432 29.96 35.0472 26.726 35.0472 23.044C35.0472 17.094 39.8912 12.25 45.8412 12.25ZM29.5312 8.148C29.1532 7.77 29.1532 7.14 29.5312 6.762C29.9092 6.384 30.5392 6.384 30.9172 6.762L34.2632 10.108C34.6412 10.486 34.6412 11.116 34.2632 11.494C34.0672 11.69 33.8152 11.788 33.5772 11.788C33.3392 11.788 33.0732 11.69 32.8912 11.494L29.5312 8.148ZM22.7832 23.058C22.7832 22.512 23.2172 22.078 23.7632 22.078H28.4952C29.0412 22.078 29.4752 22.512 29.4752 23.058C29.4752 23.604 29.0412 24.038 28.4952 24.038H23.7632C23.2172 24.038 22.7832 23.604 22.7832 23.058ZM44.8612 5.712V0.98C44.8612 0.434 45.2952 0 45.8412 0C46.3872 0 46.8212 0.434 46.8212 0.98V5.712C46.8212 6.258 46.3872 6.692 45.8412 6.692C45.2952 6.692 44.8612 6.258 44.8612 5.712ZM68.8992 23.058C68.8992 23.604 68.4652 24.038 67.9192 24.038H63.1872C62.6412 24.038 62.2072 23.604 62.2072 23.058C62.2072 22.512 62.6412 22.078 63.1872 22.078H67.9192C68.4652 22.078 68.8992 22.526 68.8992 23.058ZM62.1512 8.148L58.8052 11.494C58.6092 11.69 58.3572 11.788 58.1052 11.788C57.8532 11.788 57.6012 11.69 57.4052 11.494C57.0272 11.116 57.0272 10.486 57.4052 10.108L60.7512 6.762C61.1292 6.384 61.7592 6.384 62.1372 6.762C62.5292 7.14 62.5292 7.756 62.1512 8.148ZM42.0892 30.926C42.2432 31.01 42.4112 31.052 42.5792 31.052C42.7472 31.052 42.9152 31.01 43.0692 30.926L52.1972 25.648C52.5052 25.466 52.6872 25.144 52.6872 24.794C52.6872 24.444 52.5052 24.122 52.1972 23.94L43.0692 18.662C42.7612 18.48 42.3972 18.48 42.0892 18.662C41.7812 18.844 41.5992 19.166 41.5992 19.516V30.058C41.5992 30.436 41.7812 30.758 42.0892 30.926ZM43.5592 21.238L49.7472 24.808L43.5592 28.392V21.238Z" fill="#0D0D0D"/>
</svg>
