<?xml version="1.0" encoding="iso-8859-1"?>
<!-- Generator: Adobe Illustrator 19.0.0, SVG Export Plug-In . SVG Version: 6.00 Build 0)  -->
<svg version="1.1" id="Capa_1" xmlns="http://www.w3.org/2000/svg" xmlns:xlink="http://www.w3.org/1999/xlink" x="0px" y="0px"
	 viewBox="0 0 512 512" style="enable-background:new 0 0 512 512;" xml:space="preserve">
<path style="fill:#5C5E70;" d="M512,256c0,19.508-2.184,38.494-6.311,56.738c-6.416,28.348-17.533,54.909-32.496,78.817
	c-0.637,1.024-1.285,2.048-1.943,3.072C425.681,465.251,346.3,512,256,512S86.319,465.251,40.751,394.627
	c-19.822-30.699-33.249-65.912-38.4-103.769c-1.191-8.735-1.933-17.617-2.215-26.624C0.042,261.496,0,258.759,0,256
	c0-24.9,3.553-48.964,10.177-71.722c2.654-9.101,5.799-17.993,9.415-26.645c5.862-14.106,12.967-27.564,21.159-40.26
	C86.319,46.749,165.7,0,256,0s169.681,46.749,215.249,117.373c10.365,16.06,18.986,33.353,25.59,51.618
	c3.124,8.673,5.81,17.565,8.004,26.645c2.111,8.714,3.772,17.607,4.953,26.645c1.16,8.746,1.86,17.638,2.111,26.645
	C511.969,251.277,512,253.628,512,256z"/>
<path style="fill:#F9EED7;" d="M471.249,127.76v266.867C425.681,465.251,346.3,512,256,512S86.319,465.251,40.751,394.627V22.8
	c0-12.591,10.209-22.8,22.8-22.8h279.939L471.249,127.76z"/>
<path style="fill:#E8DBC4;" d="M343.489,104.958V0l127.76,127.76H366.291C353.698,127.76,343.489,117.551,343.489,104.958z"/>
<path style="fill:#34ABE0;" d="M471.249,330.961v63.666C425.681,465.251,346.3,512,256,512S86.319,465.251,40.751,394.627v-63.666
	L471.249,330.961L471.249,330.961z"/>
<g>
	<path style="fill:#F9EED7;" d="M178.961,376.669c-7.536,0-11.898,4.231-11.898,13.22v35.034c0,8.99,4.362,13.221,12.031,13.221
		c10.576,0,11.238-8.065,11.634-13.221c0.397-4.891,4.892-6.214,10.18-6.214c7.139,0,10.444,1.851,10.444,9.783
		c0,17.584-14.279,27.631-33.184,27.631c-17.319,0-31.729-8.462-31.729-31.201v-35.034c0-22.739,14.41-31.201,31.729-31.201
		c18.905,0,33.184,9.519,33.184,26.309c0,7.932-3.305,9.783-10.312,9.783c-5.552,0-10.048-1.454-10.312-6.214
		C190.596,385.131,190.199,376.669,178.961,376.669z"/>
	<path style="fill:#F9EED7;" d="M274.673,429.42c0-15.997-41.909-13.221-41.909-44.157c0-19.831,17.318-27.367,33.845-27.367
		c7.007,0,26.31,1.322,26.31,11.634c0,3.569-2.379,10.841-8.197,10.841c-4.759,0-7.271-5.024-18.112-5.024
		c-9.386,0-13.22,3.834-13.22,7.933c0,13.22,41.909,10.709,41.909,44.025c0,19.038-13.881,29.349-33.052,29.349
		c-17.318,0-31.861-8.462-31.861-17.186c0-4.495,3.966-11.105,8.99-11.105c6.213,0,10.179,9.783,22.476,9.783
		C267.931,438.146,274.673,435.766,274.673,429.42z"/>
	<path style="fill:#F9EED7;" d="M358.355,429.42c0-15.997-41.909-13.221-41.909-44.157c0-19.831,17.318-27.367,33.845-27.367
		c7.007,0,26.31,1.322,26.31,11.634c0,3.569-2.379,10.841-8.197,10.841c-4.759,0-7.271-5.024-18.112-5.024
		c-9.386,0-13.22,3.834-13.22,7.933c0,13.22,41.909,10.709,41.909,44.025c0,19.038-13.881,29.349-33.052,29.349
		c-17.318,0-31.861-8.462-31.861-17.186c0-4.495,3.966-11.105,8.99-11.105c6.213,0,10.179,9.783,22.476,9.783
		C351.612,438.146,358.355,435.766,358.355,429.42z"/>
</g>
<g>
	<path style="fill:#34ABE0;" d="M184.925,174.698c0-3.704-2.646-16.05-2.646-21.871c0-16.05,19.93-30.865,38.626-30.865
		c12.169,0,15.345,6.35,15.345,11.993c0,5.115-2.646,11.111-8.29,11.111c-5.29,0-18.167,1.94-18.167,11.465
		c0,4.233,2.646,17.46,2.646,21.693c0,5.291-4.234,10.758-6.35,11.465c2.469,0.705,6.35,5.82,6.35,11.288
		c0,4.409-2.646,23.987-2.646,27.514c0,7.584,11.993,9.348,18.167,9.348c6.525,0,8.29,7.054,8.29,11.464
		c0,7.937-5.468,11.641-15.697,11.641c-18.519,0-38.273-11.993-38.273-28.925c0-6.173,2.646-23.81,2.646-27.69
		c0-7.584-10.583-2.646-10.583-15.168C174.342,176.814,184.925,181.929,184.925,174.698z"/>
	<path style="fill:#34ABE0;" d="M327.076,204.328c0,3.88,2.645,21.518,2.645,27.69c0,16.932-19.753,28.925-38.272,28.925
		c-10.23,0-15.696-3.704-15.696-11.641c0-4.409,1.764-11.464,8.29-11.464c6.172,0,18.167-1.764,18.167-9.348
		c0-3.527-2.646-23.105-2.646-27.514c0-5.467,3.881-10.582,6.349-11.288c-2.116-0.705-6.349-6.173-6.349-11.465
		c0-4.233,2.646-17.46,2.646-21.693c0-9.524-12.875-11.465-18.167-11.465c-5.643,0-8.29-5.997-8.29-11.111
		c0-5.643,3.174-11.993,15.345-11.993c18.695,0,38.625,14.816,38.625,30.865c0,5.82-2.645,18.167-2.645,21.871
		c0,7.231,10.582,2.116,10.582,14.462C337.658,201.682,327.076,196.744,327.076,204.328z"/>
</g>
<g>
</g>
<g>
</g>
<g>
</g>
<g>
</g>
<g>
</g>
<g>
</g>
<g>
</g>
<g>
</g>
<g>
</g>
<g>
</g>
<g>
</g>
<g>
</g>
<g>
</g>
<g>
</g>
<g>
</g>
</svg>
