<?xml version="1.0" encoding="iso-8859-1"?>
<!-- Generator: Adobe Illustrator 19.0.0, SVG Export Plug-In . SVG Version: 6.00 Build 0)  -->
<svg version="1.1" id="Capa_1" xmlns="http://www.w3.org/2000/svg" xmlns:xlink="http://www.w3.org/1999/xlink" x="0px" y="0px"
	 viewBox="0 0 512 512" style="enable-background:new 0 0 512 512;" xml:space="preserve">
<circle style="fill:#7FC8F1;" cx="256" cy="256" r="256"/>
<path style="fill:#00ACEA;" d="M512,256c0-6.214-0.234-12.372-0.669-18.475l-83.741-84.111
	c-10.513-10.872-26.942-17.574-48.209-19.705l-54.95-54.898c-5.051-5.978-12.599-9.777-21.038-9.777
	c-3.641,0-7.113,0.713-10.294,1.996C281.702,60.188,269.148,54.49,256,54.49c-25.912,0-49.525,22.088-66.49,62.196
	c-2.567,6.069-4.944,12.463-7.13,19.131c-6.934-1.082-13.709-1.869-20.282-2.34c-43.426-3.102-73.843,7.895-85.613,30.979
	c-2.554,5.008-4.129,10.394-4.749,16.096c-9.324,4.413-15.775,13.904-15.775,24.905c0,7.521,3.017,14.333,7.905,19.302
	l36.952,36.349c-27.328,32.934-35.98,63.595-24.333,86.435c2.167,4.249,4.969,8.084,8.365,11.5l152.603,152.283
	C243.579,511.765,249.762,512,256,512C397.385,512,512,397.385,512,256z"/>
<path style="fill:#FFFFFF;" d="M406.811,256c1.191-1.35,2.365-2.701,3.503-4.055c28.022-33.334,36.973-64.404,25.201-87.488
	c-11.771-23.083-42.173-34.086-85.613-30.979c-6.573,0.47-13.349,1.258-20.282,2.34c-2.186-6.668-4.562-13.062-7.13-19.131
	C305.525,76.579,281.912,54.49,256,54.49s-49.525,22.088-66.49,62.196c-2.567,6.069-4.944,12.463-7.13,19.131
	c-6.934-1.082-13.709-1.869-20.282-2.34c-43.426-3.102-73.843,7.895-85.613,30.979c-11.771,23.084-2.821,54.154,25.201,87.488
	c1.138,1.354,2.312,2.705,3.503,4.055c-1.191,1.35-2.365,2.701-3.503,4.055c-28.022,33.334-36.973,64.404-25.201,87.488
	c10.465,20.522,35.654,31.495,71.639,31.494c4.491,0,9.154-0.171,13.975-0.516c6.573-0.47,13.349-1.258,20.282-2.34
	c2.186,6.668,4.562,13.062,7.13,19.131c16.965,40.108,40.578,62.196,66.49,62.196s49.525-22.088,66.49-62.196
	c2.567-6.069,4.944-12.463,7.13-19.131c6.934,1.082,13.709,1.869,20.282,2.34c4.822,0.345,9.48,0.516,13.975,0.516
	c35.98,0,61.175-10.974,71.639-31.494c11.772-23.084,2.821-54.154-25.201-87.488C409.177,258.701,408.002,257.35,406.811,256z
	 M351.329,153.427c4.379-0.313,8.586-0.468,12.621-0.468c27.67,0,46.964,7.278,53.749,20.583
	c7.773,15.244-0.498,39.13-22.694,65.533c-0.677,0.805-1.368,1.61-2.065,2.414c-14.077-13.658-30.66-26.924-49.094-39.301
	c-1.981-16.47-4.87-32.25-8.614-46.994C340.723,154.398,346.099,153.801,351.329,153.427z M288.258,319.257
	c-10.739,5.476-21.531,10.44-32.258,14.864c-10.727-4.424-21.519-9.388-32.258-14.864c-12.847-6.551-25.145-13.593-36.736-20.993
	c-1.327-13.687-2.013-27.843-2.013-42.264c0-14.421,0.686-28.576,2.013-42.264c11.59-7.4,23.889-14.442,36.736-20.993
	c10.739-5.476,21.531-10.44,32.258-14.864c10.727,4.424,21.519,9.388,32.258,14.864c12.847,6.551,25.145,13.593,36.736,20.993
	c1.327,13.687,2.013,27.843,2.013,42.264c0,14.421-0.686,28.576-2.013,42.264C313.403,305.664,301.105,312.706,288.258,319.257z
	 M321.694,323.727c-1.677,10.223-3.74,20.07-6.168,29.446c-10.599-2.35-21.518-5.379-32.621-9.049
	c4.82-2.254,9.637-4.601,14.439-7.05C305.687,332.82,313.814,328.358,321.694,323.727z M229.095,344.124
	c-11.103,3.67-22.021,6.699-32.621,9.049c-2.428-9.376-4.492-19.223-6.168-29.446c7.879,4.631,16.007,9.092,24.35,13.347
	C219.459,339.523,224.275,341.87,229.095,344.124z M165.822,283.756c-12.167-8.948-23.253-18.263-33.01-27.756
	c9.758-9.493,20.844-18.809,33.01-27.756c-0.546,9.123-0.828,18.391-0.828,27.756C164.993,265.366,165.276,274.633,165.822,283.756z
	 M190.306,188.273c1.676-10.223,3.74-20.07,6.168-29.446c10.599,2.35,21.518,5.379,32.621,9.049
	c-4.82,2.254-9.637,4.601-14.439,7.05C206.313,179.18,198.186,183.642,190.306,188.273z M282.905,167.876
	c11.103-3.67,22.022-6.699,32.621-9.049c2.428,9.376,4.492,19.223,6.168,29.446c-7.879-4.631-16.007-9.092-24.35-13.347
	C292.541,172.477,287.725,170.13,282.905,167.876z M346.178,228.244c12.167,8.948,23.253,18.263,33.01,27.756
	c-9.758,9.493-20.844,18.809-33.01,27.756c0.546-9.123,0.828-18.391,0.828-27.756C347.007,246.635,346.724,237.367,346.178,228.244z
	 M207.93,124.478C221.367,92.71,238.888,74.49,256,74.49s34.633,18.22,48.07,49.988c2.042,4.829,3.954,9.889,5.739,15.143
	c-17.38,3.94-35.495,9.571-53.809,16.719c-18.314-7.148-36.429-12.778-53.809-16.719
	C203.976,134.367,205.887,129.307,207.93,124.478z M94.301,173.542c7.774-15.245,31.963-22.576,66.37-20.115
	c5.23,0.374,10.606,0.971,16.097,1.767c-3.743,14.744-6.632,30.524-8.613,46.994c-18.434,12.377-35.017,25.643-49.094,39.301
	c-0.697-0.804-1.389-1.609-2.065-2.414C94.799,212.672,86.527,188.787,94.301,173.542z M160.671,358.573
	c-34.405,2.459-58.596-4.871-66.37-20.115c-7.773-15.244,0.498-39.13,22.694-65.533c0.677-0.805,1.368-1.61,2.065-2.414
	c14.077,13.658,30.66,26.924,49.094,39.301c1.981,16.47,4.87,32.25,8.613,46.994C171.277,357.602,165.901,358.199,160.671,358.573z
	 M304.07,387.522C290.633,419.29,273.112,437.51,256,437.51s-34.633-18.22-48.07-49.988c-2.043-4.829-3.954-9.889-5.739-15.143
	c17.38-3.94,35.495-9.571,53.809-16.719c18.315,7.147,36.429,12.778,53.809,16.719C308.024,377.633,306.113,382.693,304.07,387.522z
	 M417.699,338.457c-7.773,15.244-31.96,22.575-66.37,20.115c-5.23-0.374-10.606-0.971-16.097-1.767
	c3.743-14.744,6.632-30.524,8.614-46.994c18.434-12.377,35.017-25.643,49.094-39.301c0.697,0.804,1.389,1.609,2.065,2.414
	C417.201,299.328,425.473,323.213,417.699,338.457z"/>
<path style="fill:#FFF5CB;" d="M406.81,256c1.19-1.35,2.37-2.7,3.5-4.06c28.03-33.33,36.98-64.4,25.21-87.48
	c-11.78-23.09-42.18-34.09-85.62-30.98c-6.57,0.47-13.35,1.26-20.28,2.34c-2.19-6.67-4.56-13.06-7.13-19.13
	c-16.96-40.11-40.58-62.2-66.49-62.2v20c17.11,0,34.63,18.22,48.07,49.99c2.04,4.83,3.95,9.89,5.74,15.14
	c-17.38,3.94-35.5,9.57-53.81,16.72v21.54c10.73,4.42,21.52,9.39,32.26,14.86c12.84,6.55,25.14,13.6,36.73,21
	c1.33,13.68,2.02,27.84,2.02,42.26c0,14.42-0.69,28.58-2.02,42.26c-11.59,7.4-23.89,14.45-36.73,21
	c-10.74,5.47-21.53,10.44-32.26,14.86v21.54c18.31,7.15,36.43,12.78,53.81,16.72c-1.79,5.25-3.7,10.31-5.74,15.14
	c-13.44,31.77-30.96,49.99-48.07,49.99v20c25.91,0,49.53-22.09,66.49-62.2c2.57-6.07,4.94-12.46,7.13-19.13
	c6.93,1.08,13.71,1.87,20.28,2.34c4.82,0.35,9.48,0.52,13.98,0.52c35.98,0,61.17-10.98,71.64-31.5
	c11.77-23.08,2.82-54.15-25.21-87.48C409.18,258.7,408,257.35,406.81,256z M297.34,174.93c-4.8-2.45-9.62-4.8-14.44-7.05
	c11.11-3.67,22.03-6.7,32.63-9.05c2.42,9.37,4.49,19.22,6.16,29.44C313.81,183.64,305.69,179.18,297.34,174.93z M315.53,353.17
	c-10.6-2.35-21.52-5.38-32.63-9.05c4.82-2.25,9.64-4.6,14.44-7.05c8.35-4.25,16.47-8.71,24.35-13.34
	C320.02,333.95,317.95,343.8,315.53,353.17z M351.33,153.43c4.38-0.32,8.59-0.47,12.62-0.47c27.67,0,46.96,7.28,53.75,20.58
	c7.77,15.25-0.5,39.13-22.7,65.54c-0.67,0.8-1.36,1.6-2.06,2.41c-14.08-13.66-30.66-26.93-49.09-39.3
	c-1.99-16.47-4.87-32.25-8.62-47C340.72,154.4,346.1,153.8,351.33,153.43z M346.18,228.24c12.17,8.95,23.25,18.27,33.01,27.76
	c-9.76,9.49-20.84,18.81-33.01,27.76c0.54-9.13,0.83-18.39,0.83-27.76S346.72,237.37,346.18,228.24z M417.7,338.46
	c-7.77,15.24-31.96,22.57-66.37,20.11c-5.23-0.37-10.61-0.97-16.1-1.76c3.75-14.75,6.63-30.53,8.62-47
	c18.43-12.37,35.01-25.64,49.09-39.3c0.7,0.81,1.39,1.61,2.06,2.41C417.2,299.33,425.47,323.21,417.7,338.46z"/>
<circle style="fill:#FFAA20;" cx="83.5" cy="205.46" r="27.543"/>
<circle style="fill:#1C2EDE;" cx="333.94" cy="306.58" r="27.543"/>
<circle style="fill:#FF127F;" cx="303.39" cy="96.58" r="27.543"/>
<circle style="fill:#9CFDFF;" cx="256" cy="256" r="42"/>
<path style="fill:#00E8F2;" d="M298,256c0,23.2-18.8,42-42,42v-84C279.2,214,298,232.8,298,256z"/>
<g>
</g>
<g>
</g>
<g>
</g>
<g>
</g>
<g>
</g>
<g>
</g>
<g>
</g>
<g>
</g>
<g>
</g>
<g>
</g>
<g>
</g>
<g>
</g>
<g>
</g>
<g>
</g>
<g>
</g>
</svg>
