<svg clip-rule="evenodd" fill-rule="evenodd" height="512" image-rendering="optimizeQuality" shape-rendering="geometricPrecision" text-rendering="geometricPrecision" viewBox="0 0 6.82666 6.82666" width="512" xmlns="http://www.w3.org/2000/svg"><g id="Layer_x0020_1"><circle cx="3.413" cy="3.413" fill="#ec407a" r="3.413"/><g id="_258332696"><g><g fill="#fff"><path id="_258333152" d="m3.2368 4.90039c0 .116929-.0413386.140929-.103465.140929-.0213386 0-.043874-.004-.061874-.0110709l-.00507087-.002-.0129291.0706614.00333858.00133858c.020126.00826772.0549291.0142677.0826614.0142677.120803 0 .182-.07.182-.208126v-.396929h-.0846614v.390929z"/><path id="_258333056" d="m3.62053 4.764c-.086126-.0333386-.113732-.059874-.113732-.108929 0-.0416063.0328031-.0834646.106-.0834646.0489291 0 .0863937.0148031.109339.0273386l.00466142.00253543.0237323-.0702677-.00319685-.00187402c-.0193386-.0109291-.062126-.0293386-.131874-.0293386-.114268 0-.194126.0673386-.194126.163732 0 .078126.050126.132268.157732.170394.0785354.030126.107732.0606614.107732.112394 0 .0589291-.0453386.0956063-.118268.0956063-.0453386 0-.0951969-.014126-.133465-.0376063l-.00492913-.00307087-.0217323.0722677.00280315.00187402c.0331969.022126.0971969.038126.152126.038126.154929 0 .209858-.0933386.209858-.173339-.00012598-.0834488-.044252-.134646-.152661-.176378z"/></g><g><g><path id="_258333344" d="m4.8836 5.37333h-2.94054c-.0245354 0-.0445354-.02-.0445354-.0445354v-3.83094c0-.0245354.02-.0445354.0445354-.0445354h2.3624c.0246614 0 .0445354.02.0445354.0445354s-.02.0445354-.0445354.0445354h-2.31787v3.74187h2.85133l-.00053543-3.18053c0-.0246614.02-.0445354.0445354-.0445354.0246614 0 .0445354.02.0445354.0445354l.00053543 3.22506c0 .011874-.00466142.0231969-.0130709.0314646-.00826772.0083937-.0195906.0130709-.0313228.0130709z" fill="#fff"/></g><g><path id="_258332984" d="m4.88307 2.14827h-.577606c-.0246654 0-.0445394-.02-.0445394-.0445354v-.605858c0-.0182677.0110709-.0345354.0280039-.0413386.0169291-.00680315.0362677-.00253543.0488031.0106614l.577591.605858c.0122677.0129291.0157323.031874.00866142.0482677-.00705512.0164094-.0230551.0269449-.0409134.0269449zm-.533071-.0890709h.429071l-.429071-.45z" fill="#fff"/></g><g><path id="_258333560" d="m4.53214 5.37333h-2.23761c-.0245354 0-.0445354-.02-.0445354-.0445354 0-.0246614.02-.0445354.0445354-.0445354h2.23761c.0246614 0 .0445354.02.0445354.0445354-.00001575.0245354-.019874.0445354-.0445354.0445354z" fill="#fff"/></g><g><path id="_258333608" d="m4.88333 4.33041h-2.94028c-.0245354 0-.0445354-.02-.0445354-.0445354 0-.0246654.02-.0445394.0445354-.0445394h2.94028c.0246614 0 .0445354.02.0445354.0445394 0 .0245354-.019874.0445354-.0445354.0445354z" fill="#fff"/></g></g></g><g><g><g><path id="_258333008" d="m2.81133 2.85774c.0913386 0 .104126-.050126.104126-.0951969 0-.036-.00519685-.072-.0102677-.108-.00519685-.036-.0102677-.0708031-.0102677-.106803 0-.118398.0771969-.168539.186535-.168539h.0270709v.0708031h-.0231969c-.075874 0-.101606.0411969-.101606.110665 0 .0296063.00387402.0603937.00892913.0913386.00519685.032126.00907087.0630709.00907087.0977323.00133858.0822677-.0346614.123465-.0926614.138929v.00253543c.057874.014126.093874.057874.0926614.140268 0 .0346614-.00387402.0669291-.00907087.0977323-.00519685.032126-.00892913.0617323-.00892913.0926614 0 .072.0296063.111874.101606.111874l.0231969-.00001575v.0706614l-.0270551.00001575c-.106803 0-.186535-.0462677-.186535-.176268 0-.0346614.00519685-.0708031.0102677-.105465.00519685-.0346614.0102677-.0694646.0102677-.104126 0-.039874-.0128031-.0951969-.104126-.0951969l-.00001575-.0656063z" fill="#fff"/></g><g><path id="_258333392" d="m4.01533 2.92333c-.0913386 0-.104126.0553386-.104126.0951969 0 .0346614.00519685.0694646.0102677.104126.00519685.0346614.0102677.0708031.0102677.105465 0 .129874-.0810709.176268-.186535.176268l-.0270709.00001575v-.0708031h.0218583c.072-.00133858.102929-.039874.102929-.111874 0-.0309291-.00519685-.0603937-.00907087-.0926614-.00519685-.0309291-.0102677-.0630709-.0102677-.0977323 0-.0822677.036-.126.0926614-.140268v-.00253543c-.0565354-.0154646-.0926614-.0565354-.0926614-.138929 0-.0346614.00519685-.0656063.0102677-.0977323.00387402-.0309291.00907087-.0617323.00907087-.0913386 0-.0694685-.0270709-.109343-.101606-.110665h-.0231811v-.0708031h.0257323c.109339 0 .187732.050126.187732.168539 0 .036-.00519685.0708031-.0102677.106803-.00519685.036-.0102677.072-.0102677.108 0 .0450709.0128031.0951969.104126.0951969l.00014173.0657323z" fill="#fff"/></g></g><g><g><circle id="_258332192" cx="3.193" cy="2.892" fill="#fff" r=".067"/></g><g><circle id="_258332168" fill="#fff" r=".017" transform="matrix(.641 -3.948 3.948 .641 3.413 2.892)"/></g><g><circle id="_258332768" cx="3.634" cy="2.892" fill="#fff" r=".067"/></g></g></g></g></g></svg>