<svg xmlns="http://www.w3.org/2000/svg" version="1.1" xmlns:xlink="http://www.w3.org/1999/xlink" xmlns:svgjs="http://svgjs.com/svgjs" width="512" height="512" x="0" y="0" viewBox="0 0 682.667 682.667" style="enable-background:new 0 0 512 512" xml:space="preserve" class=""><g><defs><clipPath id="a" clipPathUnits="userSpaceOnUse"><path d="M0 512h512V0H0Z" fill="#ff390e" data-original="#000000" class=""></path></clipPath></defs><path d="m0 0-55.024-131.111" style="stroke-width:15;stroke-linecap:round;stroke-linejoin:round;stroke-miterlimit:10;stroke-dasharray:none;stroke-opacity:1" transform="matrix(1.33333 0 0 -1.33333 379.202 252.049)" fill="none" stroke="#ff390e" stroke-width="15" stroke-linecap="round" stroke-linejoin="round" stroke-miterlimit="10" stroke-dasharray="none" stroke-opacity="" data-original="#000000" class=""></path><g clip-path="url(#a)" transform="matrix(1.33333 0 0 -1.33333 0 682.667)"><path d="M0 0c0-15.603-10.885-28.252-24.312-28.252-13.428 0-24.314 12.649-24.314 28.252 0 15.604 10.886 28.253 24.314 28.253C-10.885 28.253 0 15.604 0 0Z" style="stroke-width:15;stroke-linecap:round;stroke-linejoin:round;stroke-miterlimit:10;stroke-dasharray:none;stroke-opacity:1" transform="translate(243.156 300.821)" fill="none" stroke="#ff390e" stroke-width="15" stroke-linecap="round" stroke-linejoin="round" stroke-miterlimit="10" stroke-dasharray="none" stroke-opacity="" data-original="#000000" class=""></path><path d="M0 0c0-15.604-10.886-28.253-24.313-28.253S-48.626-15.604-48.626 0c0 15.604 10.886 28.252 24.313 28.252S0 15.604 0 0Z" style="stroke-width:15;stroke-linecap:round;stroke-linejoin:round;stroke-miterlimit:10;stroke-dasharray:none;stroke-opacity:1" transform="translate(317.47 211.179)" fill="none" stroke="#ff390e" stroke-width="15" stroke-linecap="round" stroke-linejoin="round" stroke-miterlimit="10" stroke-dasharray="none" stroke-opacity="" data-original="#000000" class=""></path><path d="M0 0a246.883 246.883 0 0 0 12.241-49.927c.821-5.985-3.878-11.307-9.919-11.307h-87.941a9.988 9.988 0 0 0-9.75 7.82C-107.306.191-149.828 42.038-202.299 54.263a9.99 9.99 0 0 0-7.73 9.731l.008 88.093c0 6.06 5.353 10.764 11.352 9.912a246.783 246.783 0 0 0 78.528-25.043" style="stroke-width:15;stroke-linecap:round;stroke-linejoin:round;stroke-miterlimit:10;stroke-dasharray:none;stroke-opacity:1" transform="translate(489.94 341.154)" fill="none" stroke="#ff390e" stroke-width="15" stroke-linecap="round" stroke-linejoin="round" stroke-miterlimit="10" stroke-dasharray="none" stroke-opacity="" data-original="#000000" class=""></path><path d="M0 0a246.664 246.664 0 0 0 78.526 25.052c6 .853 11.354-3.852 11.354-9.912v-88.013a9.988 9.988 0 0 0-7.762-9.736C28.898-94.796-13.006-136.976-24.79-190.338a9.991 9.991 0 0 0-9.755-7.842h-87.918c-6.041 0-10.739 5.322-9.918 11.307a246.802 246.802 0 0 0 24.621 78.553c.119.25.25.5.38.75" style="stroke-width:15;stroke-linecap:round;stroke-linejoin:round;stroke-miterlimit:10;stroke-dasharray:none;stroke-opacity:1" transform="translate(142.2 478.1)" fill="none" stroke="#ff390e" stroke-width="15" stroke-linecap="round" stroke-linejoin="round" stroke-miterlimit="10" stroke-dasharray="none" stroke-opacity="" data-original="#000000" class=""></path><path d="M0 0c.01.01.01.02.01.03a246.534 246.534 0 0 1 24.622 78.553c.82 5.985-3.878 11.307-9.919 11.307h-87.942a9.989 9.989 0 0 1-9.75-7.82c-11.936-53.605-54.458-95.451-106.929-107.677a9.99 9.99 0 0 1-7.731-9.731l.008-88.093c.001-6.06 5.354-10.764 11.353-9.911A246.765 246.765 0 0 1-107.75-108.3" style="stroke-width:15;stroke-linecap:round;stroke-linejoin:round;stroke-miterlimit:10;stroke-dasharray:none;stroke-opacity:1" transform="translate(477.55 142.19)" fill="none" stroke="#ff390e" stroke-width="15" stroke-linecap="round" stroke-linejoin="round" stroke-miterlimit="10" stroke-dasharray="none" stroke-opacity="" data-original="#000000" class=""></path><path d="M0 0a247.113 247.113 0 0 0-14.704 64.428h107.38C101.92 7.386 145.286-38.367 201.08-51.14a9.988 9.988 0 0 0 7.763-9.736l.001-88.015c0-6.06-5.354-10.765-11.354-9.912a246.811 246.811 0 0 0-78.509 25.037" style="stroke-width:15;stroke-linecap:round;stroke-linejoin:round;stroke-miterlimit:10;stroke-dasharray:none;stroke-opacity:1" transform="translate(23.234 167.65)" fill="none" stroke="#ff390e" stroke-width="15" stroke-linecap="round" stroke-linejoin="round" stroke-miterlimit="10" stroke-dasharray="none" stroke-opacity="" data-original="#000000" class=""></path><path d="M0 0h-80.694c-14.918 0-27.011 12.093-27.011 27.011v80.694c0 14.918 12.093 27.011 27.011 27.011H0c14.918 0 27.011-12.093 27.011-27.011V27.011C27.011 12.093 14.918 0 0 0Z" style="stroke-width:15;stroke-linecap:round;stroke-linejoin:round;stroke-miterlimit:10;stroke-dasharray:none;stroke-opacity:1" transform="translate(477.49 7.5)" fill="none" stroke="#ff390e" stroke-width="15" stroke-linecap="round" stroke-linejoin="round" stroke-miterlimit="10" stroke-dasharray="none" stroke-opacity="" data-original="#000000" class=""></path><path d="M0 0c0-18.014-14.603-32.617-32.616-32.617-18.015 0-32.617 14.603-32.617 32.617 0 18.014 14.602 32.617 32.617 32.617C-14.603 32.617 0 18.014 0 0Z" style="stroke-width:15;stroke-linecap:round;stroke-linejoin:round;stroke-miterlimit:10;stroke-dasharray:none;stroke-opacity:1" transform="translate(469.759 82.588)" fill="none" stroke="#ff390e" stroke-width="15" stroke-linecap="round" stroke-linejoin="round" stroke-miterlimit="10" stroke-dasharray="none" stroke-opacity="" data-original="#000000" class=""></path><path d="M0 0c-3.308 23.418-23.421 41.435-47.752 41.435-24.332 0-44.445-18.017-47.753-41.435" style="stroke-width:15;stroke-linecap:round;stroke-linejoin:round;stroke-miterlimit:10;stroke-dasharray:none;stroke-opacity:1" transform="translate(484.894 8.537)" fill="none" stroke="#ff390e" stroke-width="15" stroke-linecap="round" stroke-linejoin="round" stroke-miterlimit="10" stroke-dasharray="none" stroke-opacity="" data-original="#000000" class=""></path><path d="M0 0h-80.694c-14.918 0-27.011 12.093-27.011 27.011v80.694c0 14.918 12.093 27.011 27.011 27.011H0c14.918 0 27.011-12.093 27.011-27.011V27.011C27.011 12.093 14.918 0 0 0Z" style="stroke-width:15;stroke-linecap:round;stroke-linejoin:round;stroke-miterlimit:10;stroke-dasharray:none;stroke-opacity:1" transform="translate(115.205 7.5)" fill="none" stroke="#ff390e" stroke-width="15" stroke-linecap="round" stroke-linejoin="round" stroke-miterlimit="10" stroke-dasharray="none" stroke-opacity="" data-original="#000000" class=""></path><path d="M0 0c0-18.014-14.603-32.617-32.617-32.617-18.014 0-32.616 14.603-32.616 32.617 0 18.014 14.602 32.617 32.616 32.617S0 18.014 0 0Z" style="stroke-width:15;stroke-linecap:round;stroke-linejoin:round;stroke-miterlimit:10;stroke-dasharray:none;stroke-opacity:1" transform="translate(107.475 82.588)" fill="none" stroke="#ff390e" stroke-width="15" stroke-linecap="round" stroke-linejoin="round" stroke-miterlimit="10" stroke-dasharray="none" stroke-opacity="" data-original="#000000" class=""></path><path d="M0 0h80.694c2.57 0 5.052.366 7.406 1.037-3.308 23.418-23.421 41.434-47.753 41.434-24.331 0-44.445-18.016-47.752-41.434A26.962 26.962 0 0 1 0 0Z" style="stroke-width:15;stroke-linecap:round;stroke-linejoin:round;stroke-miterlimit:10;stroke-dasharray:none;stroke-opacity:1" transform="translate(34.51 7.5)" fill="none" stroke="#ff390e" stroke-width="15" stroke-linecap="round" stroke-linejoin="round" stroke-miterlimit="10" stroke-dasharray="none" stroke-opacity="" data-original="#000000" class=""></path><path d="M0 0h-80.694c-14.918 0-27.011 12.093-27.011 27.011v80.694c0 14.918 12.093 27.011 27.011 27.011H0c14.918 0 27.011-12.093 27.011-27.011V27.011C27.011 12.093 14.918 0 0 0Z" style="stroke-width:15;stroke-linecap:round;stroke-linejoin:round;stroke-miterlimit:10;stroke-dasharray:none;stroke-opacity:1" transform="translate(477.49 369.784)" fill="none" stroke="#ff390e" stroke-width="15" stroke-linecap="round" stroke-linejoin="round" stroke-miterlimit="10" stroke-dasharray="none" stroke-opacity="" data-original="#000000" class=""></path><path d="M0 0c0-18.014-14.603-32.617-32.616-32.617-18.015 0-32.617 14.603-32.617 32.617 0 18.014 14.602 32.617 32.617 32.617C-14.603 32.617 0 18.014 0 0Z" style="stroke-width:15;stroke-linecap:round;stroke-linejoin:round;stroke-miterlimit:10;stroke-dasharray:none;stroke-opacity:1" transform="translate(469.759 444.872)" fill="none" stroke="#ff390e" stroke-width="15" stroke-linecap="round" stroke-linejoin="round" stroke-miterlimit="10" stroke-dasharray="none" stroke-opacity="" data-original="#000000" class=""></path><path d="M0 0c-3.308 23.418-23.421 41.435-47.752 41.435-24.332 0-44.445-18.017-47.753-41.435" style="stroke-width:15;stroke-linecap:round;stroke-linejoin:round;stroke-miterlimit:10;stroke-dasharray:none;stroke-opacity:1" transform="translate(484.894 370.82)" fill="none" stroke="#ff390e" stroke-width="15" stroke-linecap="round" stroke-linejoin="round" stroke-miterlimit="10" stroke-dasharray="none" stroke-opacity="" data-original="#000000" class=""></path><path d="M0 0h-80.694c-14.918 0-27.011 12.093-27.011 27.011v80.694c0 14.918 12.093 27.011 27.011 27.011H0c14.918 0 27.011-12.093 27.011-27.011V27.011C27.011 12.093 14.918 0 0 0Z" style="stroke-width:15;stroke-linecap:round;stroke-linejoin:round;stroke-miterlimit:10;stroke-dasharray:none;stroke-opacity:1" transform="translate(115.205 369.784)" fill="none" stroke="#ff390e" stroke-width="15" stroke-linecap="round" stroke-linejoin="round" stroke-miterlimit="10" stroke-dasharray="none" stroke-opacity="" data-original="#000000" class=""></path><path d="M0 0c0-18.014-14.603-32.617-32.617-32.617-18.014 0-32.616 14.603-32.616 32.617 0 18.014 14.602 32.617 32.616 32.617S0 18.014 0 0Z" style="stroke-width:15;stroke-linecap:round;stroke-linejoin:round;stroke-miterlimit:10;stroke-dasharray:none;stroke-opacity:1" transform="translate(107.475 444.872)" fill="none" stroke="#ff390e" stroke-width="15" stroke-linecap="round" stroke-linejoin="round" stroke-miterlimit="10" stroke-dasharray="none" stroke-opacity="" data-original="#000000" class=""></path><path d="M0 0c-3.308 23.418-23.421 41.435-47.753 41.435-24.331 0-44.444-18.017-47.752-41.435" style="stroke-width:15;stroke-linecap:round;stroke-linejoin:round;stroke-miterlimit:10;stroke-dasharray:none;stroke-opacity:1" transform="translate(122.61 370.82)" fill="none" stroke="#ff390e" stroke-width="15" stroke-linecap="round" stroke-linejoin="round" stroke-miterlimit="10" stroke-dasharray="none" stroke-opacity="" data-original="#000000" class=""></path></g></g></svg>