<svg xmlns="http://www.w3.org/2000/svg" version="1.1" xmlns:xlink="http://www.w3.org/1999/xlink" xmlns:svgjs="http://svgjs.com/svgjs" width="512" height="512" x="0" y="0" viewBox="0 0 512 512" style="enable-background:new 0 0 512 512" xml:space="preserve" class=""><g><path d="m283.523 166.686-.002-.049-.001-.022.003.071z" fill="#ff390e" data-original="#000000" class=""></path><path d="M511.783 470.128a3.858 3.858 0 0 0-.019-.188c-17.952-160.427-16.983-153.627-18.352-160.289-4.383-21.189-21.354-35.686-40.957-40.641l-48.025-11.955v-2.311h45.119c10.703 0 19.426-8.641 19.559-19.313l5.614-95.146a7.501 7.501 0 0 0-7.047-7.93c-4.156-.266-7.686 2.91-7.93 7.046-5.872 99.615-5.638 95.349-5.638 95.782 0 2.471-2.088 4.559-4.559 4.559H404.43V237.8c4.014-1.97 8.02-4.632 7.618-4.373 13.438-8.69 24.001-21.09 30.135-34.328 10.994-23.144 7.32-41.244 8.043-53.117 0-8.018-6.27-14.567-14.274-14.911h-.001c-54.9-2.354-83.27-33.484-90.656-42.968-4.947-6.354-14.371-6.583-19.672-.674-10.941 12.189-23.317 16.037-29.722 17.246-7.212 1.363-12.446 7.692-12.446 15.049.028 45.715-.061 43.483.069 46.913.089 2.262.312 5.109.627 7.546 5.444 41.972 39.267 60.399 37.788 59.443 2.944 1.909 5.08 3.011 7.019 4.031v2.086h-43.793c-2.471 0-4.559-2.087-4.559-4.559 0-.41-6.05-102.796-6.078-103.038-.089-.779-8.375-78.048 35.009-87.584 2.183-.48 4.013-1.859 5.035-3.848.76-1.428 19.315-34.831 78.397-23.328.293.057 2.867.897 3.089.97 53.423 17.695 61.477 67.198 61.838 67.855 1.44 6.404 2.11 12.615 2.218 18.759.072 4.142 3.514 7.401 7.631 7.369a7.5 7.5 0 0 0 7.369-7.631c-.144-8.211-1.194-16.037-2.786-22.663-.214-.331-10.676-58.142-71.456-77.899-2.397-.787-3.742-1.235-5.037-1.487C349.529-6.36 317.834 9.084 303.16 30.7c-22.132 6.284-36.632 26.02-42.024 57.31-3.854 22.36-1.804 43.111-1.532 45.62 7.027 108.53 4.619 104.436 8.68 111.382-8.107-1.286-13.593-.851-14.156-.885h-.105c-3.073.431-25.875.059-46.749 18.951l-5.972-1.486-18.241-8.732v-15.224c47.158-23.579 45.437-74.251 45.47-74.351 20.516-4.47 30.048-25.256 18.894-40.89.001-.173.031-16.837-.097-24.525-2.767-66.882-69.243-115.2-136.571-91.954C76.094 18.3 52.115 47.955 44.664 83.032c-.155.812-.557 3.051-.614 3.534-1.257 8.124-1.463 14.974-1.198 35.829-11.162 15.642-1.614 36.424 18.897 40.891.423 35.092 20.158 61.529 45.83 74.527l-.001 14.875-18.993 9.092c-22.057 6.506-39.107 6.083-56.076 22.287-1.199 1.154-2.403 2.5-2.282 2.369-8.542 9.865-11.436 18.871-12.964 31.425L.244 469.938c-.008.064-.014.129-.02.193a59.965 59.965 0 0 0-.216 6.072c-.217 19.163 13.164 35.792 35.253 35.792h68.237a7.5 7.5 0 0 0 7.501-7.501 7.5 7.5 0 0 0-7.501-7.501h-30.85l7.437-140.682a7.5 7.5 0 0 0-7.095-7.886c-4.128-.246-7.667 2.957-7.886 7.095l-1.564 29.589-38.26-4.014c.011-.108 7.067-64.731 8.351-69.895 6.956-27.368 36.649-28.564 55.041-33.983l23.06 29.518a14.905 14.905 0 0 0 11.735 5.721c8.342 0 11.964-6.294 14.167-8.027v36.297c0 4.143 3.357 7.501 7.501 7.501s7.501-3.357 7.501-7.501v-36.295c2.136 1.679 6.155 8.531 15.046 8 9.887-.584 12.787-9.326 18.166-15.055-3.534 13.077-2.639 17.645-2.864 26.736-7.576 7.985-9.379 19.49-3.752 29.209-4.602 6.549-8.516 11.802-13.621 24.844-2.99 7.629-5.683 13.958-1.584 21 5.201 8.932 14.404 7.528 22.631 10.017 3.371.698 6.838.099 9.826-1.845 10.631-6.908 3.1-15.849 6.457-31.01 2.452 6.106 5.368 10.311 5.237 10.105 9.378 13.66 18.024 17.319 19.206 18.331h.001v-.001c.116.066.461.29 1.611.922v9.352c-26.673 6.643-35.691 8.125-43.351 13.446-2.795 1.953-5.023 4.022-4.732 3.761-7.833 7.157-9.562 14.722-9.827 15.271v.001l-.001.002v.001c-2.712 8.799-1.896 14.337-6.41 49.476H138.5a7.5 7.5 0 0 0-7.501 7.501 7.5 7.5 0 0 0 7.501 7.501h236.423a7.5 7.5 0 0 0 7.501-7.501 7.5 7.5 0 0 0-7.501-7.501h-26.518c-4.638-41.102-4.047-48.035-10.365-57.824-10.666-16.399-28.289-17.742-53.957-24.133v-9.247c1.139-.617 1.695-.964 1.806-1.028l.001.001c.261-.196 6.554-3.647 12.901-10.308 5.145-5.483 8.904-11.563 11.542-18.128 1.605 7.251.749 13.8.44 19.146-.348 5.97 3.272 11.146 8.493 13.134 4.93 1.878 7.813.386 19.601-1.965a15.711 15.711 0 0 0 11.731-10.485c1.632-4.989.404-8.658-.867-12.36-3.635-10.575-8.8-21.614-15.688-30.475 4.258-7.356 4.414-16.108.302-23.65 13.024-3.742 25.4-13.17 32.331-19.172 39.376 34.158 72.64 27.425 75.364-28.627 1.541.711 31.184 4.217 36.683 30.813 1.617 7.814 1.584 12.837 8.006 68.39l-37.96 3.983-1.561-29.539c-.219-4.138-3.795-7.339-7.886-7.095a7.5 7.5 0 0 0-7.095 7.886l7.437 140.682h-29.735a7.5 7.5 0 0 0-7.501 7.501 7.5 7.5 0 0 0 7.501 7.501h66.822c20.719.001 37.354-15.014 35.032-41.867zM62.288 400.062l-4.869 96.932c-17.738-.957-28.614 2.753-36.565-5.307-3.425-3.472-5.683-8.518-5.845-15.626-.094-5.297.216-3.701 8.604-80.056l38.675 4.057zm236.167-236.701v-43.639c0-.154.097-.284.229-.309 7.926-1.496 22.905-6.089 36.37-20.103 12.065 14.683 43.283 44.273 100.171 46.743-.019 15.702.333 21.337-1.007 29.079-3.648 20.964-15.91 33.036-16.136 33.501-28.967 33.237-69.236 20.681-69.337 20.684-34.543-10.661-50.29-39.121-50.29-65.956zm30.501 91.38v2.311h.001l-23.224 5.781c-3.158-2.757-6.436-5.38-10.937-8.093h34.16zM228.523 147.628v-21.627c11.455 4.727 11.457 16.901 0 21.627zm-166.773.002c-11.461-4.725-11.464-16.903 0-21.63v21.63zm6.482-38.068a34.718 34.718 0 0 0-10.382 1.881c.314-7.77-3.743-45.046 29.36-74.46l.102-.09c30.799-27.274 65.383-21.277 66.349-21.491 38.399 3.741 73.458 32.852 78.503 80.152.353 4.705.237 8.237.254 15.888a34.699 34.699 0 0 0-10.379-1.881c-5.032-2.88-8.762-7.701-10.382-14.937-1.2-5.79.453-12.84-7.189-19.216-13.184-11-25.835 4.617-89.844-2.198l-14.196-1.856c-10.39-1.618-20.843 5.855-21.189 17.932a41.915 41.915 0 0 1-.118 1.855c-1.24 14.099-10.652 18.031-10.889 18.421zm10.549 70.414c-3.626-15.94-1.191-19.37-2.03-58.035.29-.439 16.798-8.757 17.507-32.656.242-9.604 17.399 7.59 97.893-3.108 1.975-.312 3.814 1.157 3.863 3.103.554 19.68 12.39 28.808 12.074 28.507 2.797 2.602 5.323 4.073 5.43 4.153.004 45.621.15 44.752-.568 50.308-5.459 41.924-48.098 69.592-88.918 56.167-.105-.071-35.783-10.28-45.251-48.439zm44.697 117.426-20.197-25.853 10.16-4.862 20.947 19.721-10.91 10.994zm21.658-21.48-22.556-21.236v-11.043c15.13 4.174 30.536 4.106 45.292-.05v10.922l-22.736 21.407zm21.657 21.48-10.909-10.995 21.067-19.836 10.137 4.852-20.295 25.979zm20.574 96.608c-9.763-2.103-10.48-1.86-10.473-2.735.001-.142 4.668-15.786 13.238-27.483.321.177.646.348.974.515-3.039 7.041-4.973 16.133-3.739 29.703zm11.468-42.655c-10.532-4.58-10.486-15.727 0-20.285v20.285zm92.332 80.907c13.925 3.522 23.183 5.077 28.207 8.915 11.114 8.476 9.118 13.037 13.938 55.817h-20.094l-.785-14.842a7.5 7.5 0 0 0-7.885-7.094 7.5 7.5 0 0 0-7.095 7.886l.743 14.051H215.08l.743-14.051a7.5 7.5 0 0 0-7.095-7.886c-4.132-.245-7.667 2.957-7.886 7.095l-.785 14.842H179.77c5.437-48.256 3.968-36.474 4.972-42.495 3.859-17.688 22.145-17.846 37.363-22.286.197 2.062.513 3.512.747 4.63.14.351 1.042 5.402 4.238 10.559 10.078 15.035 27.959 19.439 42.501 13.539l.095-.038c13.316-5.615 20.306-17.021 21.481-28.642zm-33.826-19.56c6.792-.082 11.218-1.257 11.741-1.337.315 1.835-2.03 14.479 7.262 17.19-.042.219.242 4.116-1.889 8.605-1.199 1.517-3.64 8.603-14.002 10.917-2.523.495-4.856.342-4.756.345-2.834-.133-4.991-.884-4.891-.855-1.2-.4-2.386-.822-3.881-1.677l-.082-.048-.042-.026v-.001c-8.084-4.409-9.631-13.633-9.367-12.634-.15-.902-.584-3.199-.502-4.683 3.868-1.24 7.067-5.548 7.067-11.129v-6.045c6.923 1.633 13.965 1.378 13.342 1.378zm41.74-52.22c-1.887 14.568-10.929 23.395-10.382 22.773-4.53 5.182-9.908 8.294-9.129 7.792-6.235 3.864-11.059 4.982-10.541 4.833a42.921 42.921 0 0 1-28.455-1.293c-22.99-9.196-25.888-31.544-25.997-31.752-1.536-7.328-.469-21.581-.74-35.054 11.09 1.244 30.687.844 42.8-14.307 12.116 15.152 31.712 15.552 42.801 14.307-.055 28.918.175 28.404-.357 32.701zm3.295-48.321c-23.677 4.788-32.956-5.875-35.846-10.682-4.484-7.461-15.296-7.472-19.788 0-2.889 4.806-12.16 15.468-35.849 10.682-3.164-.64-6.516.244-9.007 2.665-1.315.17-2.6.418-3.855.731.213-5.839 1.233-10.015 1.212-9.915 2.032-10.707 8.353-22.655 18.124-31.477 38.759-33.86 96.118-6.728 97.877 41.393a33.697 33.697 0 0 0-3.858-.732 9.995 9.995 0 0 0-9.01-2.665zm12.064 39.193V331.07c10.408 4.525 10.596 15.676 0 20.284zm21.906 39.72c.022.071-.874.876-10.439 2.935.901-9.912.444-20.046-3.739-29.703.328-.167.653-.338.974-.515 5.816 7.947 10.182 17.908 13.204 27.283zm-6.096-75.82a73.564 73.564 0 0 0-3.633-20.541c6.767 4.879 14.308 8.48 22.318 10.627-5.733 4.11-12.45 8.094-18.685 9.914zm-4.515-41.941c9.961-2.519 9.935-2.378 11.016-2.869 4.377-1.981 7.207-7.029 7.207-12.856v-14.035c15.043 4.282 31.075 4.195 45.471.082v13.952c0 7.113 4.131 12.211 8.49 13.303l.144.036 9.565 2.382c-22.161 25.896-59.964 25.66-81.893.005zM398 270.91l.043.011-.043-.011zm16.438 44.486c-8.725 3.642-22.455-4.572-30.122-10.107 15.032-4.075 29.147-13.596 39.2-28.026l3.657.91c-.623 20.899-5.084 34.033-12.735 37.223zm76.718 176.29c-7.953 8.06-18.76 4.348-36.472 5.307l-5.124-96.934 38.836-4.074c9.233 85.73 8.432 71.087 8.607 80.385.051 4.498-1.458 10.868-5.847 15.316z" fill="#ff390e" data-original="#000000" class=""></path></g></svg>