<svg xmlns="http://www.w3.org/2000/svg" version="1.1" xmlns:xlink="http://www.w3.org/1999/xlink" xmlns:svgjs="http://svgjs.com/svgjs" width="512" height="512" x="0" y="0" viewBox="0 0 512.002 512.002" style="enable-background:new 0 0 512 512" xml:space="preserve" class=""><g><path d="m109.834 496.21-15.055-21.206c-3.196-4.504-9.439-5.563-13.943-2.366-4.503 3.197-5.563 9.439-2.365 13.943l15.055 21.207a9.986 9.986 0 0 0 8.163 4.212c2.002 0 4.023-.6 5.78-1.847 4.503-3.197 5.563-9.439 2.365-13.943zM225.206 499.946l-16.384-78.088c-7.967-37.972-30.087-70.806-62.283-92.455l-34.981-23.522c-14.027-9.43-32.881-7.402-44.605 4.553V189.938c0-15.816-10.783-29.254-26.223-32.681-9.965-2.214-20.243.184-28.204 6.571-7.96 6.387-12.525 15.904-12.525 26.11V344.99c0 20.313 6.216 39.806 17.975 56.371l17.833 25.121a9.986 9.986 0 0 0 8.163 4.212c2.002 0 4.023-.6 5.78-1.847 4.503-3.197 5.563-9.439 2.365-13.943l-17.833-25.121c-9.344-13.163-14.283-28.652-14.283-44.794V189.938c0-4.108 1.838-7.939 5.042-10.511a13.408 13.408 0 0 1 11.354-2.645c6.215 1.379 10.556 6.789 10.556 13.156v123.016c0 17.414 6.398 34.005 18.021 46.913.498.597 1.01 1.188 1.551 1.761 6.641 7.037 14.449 15.329 21.803 23.145l10.295 10.957c.033.035.069.065.103.099 8.807 9.367 15.302 16.284 15.438 16.428 3.779 4.025 10.109 4.225 14.135.444s4.225-10.109.443-14.135c-.182-.194-11.888-12.659-25.256-26.868l-22.929-24.403c-.058-.062-.111-.127-.169-.189-5.376-6.43-5.309-15.753.326-22.115 4.985-5.626 13.449-6.706 19.686-2.513L135.379 346c27.848 18.725 46.979 47.123 53.869 79.965l16.385 78.089c.989 4.713 5.146 7.948 9.777 7.948.68 0 1.371-.07 2.063-.215 5.405-1.134 8.867-6.436 7.733-11.841z" fill="#ff390e" data-original="#000000" class=""></path><path d="m74.089 445.858-.064-.09c-3.21-4.496-9.454-5.54-13.949-2.332s-5.539 9.453-2.332 13.948l.064.09a9.989 9.989 0 0 0 8.149 4.193c2.01 0 4.039-.604 5.8-1.861 4.494-3.208 5.539-9.453 2.332-13.948zM499.475 163.829c-7.96-6.387-18.243-8.781-28.203-6.571-15.44 3.426-26.224 16.865-26.224 32.681v120.496c-11.723-11.955-30.579-13.983-44.605-4.553l-34.981 23.521c-32.197 21.648-54.316 54.483-62.283 92.455l-16.384 78.089c-1.134 5.405 2.328 10.706 7.733 11.84.692.145 1.384.215 2.063.215 4.632 0 8.788-3.236 9.777-7.949l16.384-78.089c6.891-32.841 26.021-61.24 53.869-79.964l34.981-23.521c6.235-4.194 14.699-3.114 19.686 2.512 5.628 6.354 5.703 15.662.347 22.092-.064.07-.125.142-.189.212l-48.186 51.271c-3.781 4.026-3.582 10.354.443 14.135 4.026 3.781 10.354 3.582 14.135-.444.136-.144 40.998-43.591 47.639-50.628a38.145 38.145 0 0 0 1.551-1.761c11.622-12.908 18.021-29.499 18.021-46.913V189.938c0-6.367 4.341-11.777 10.557-13.156 4.013-.89 8.149.075 11.354 2.645a13.413 13.413 0 0 1 5.042 10.511V344.99c0 16.142-4.939 31.631-14.283 44.794l-75.551 106.427c-3.197 4.503-2.138 10.746 2.365 13.943a9.958 9.958 0 0 0 5.78 1.847 9.99 9.99 0 0 0 8.163-4.212l75.551-106.427c11.759-16.565 17.975-36.058 17.975-56.371V189.938c-.003-10.206-4.567-19.722-12.527-26.109z" fill="#ff390e" data-original="#000000" class=""></path><path d="m382.658 191.66-17.791-4.25v-3.19c11.563-8.1 19.145-21.513 19.145-36.671V124.42c0-24.679-20.077-44.756-44.756-44.756-11.075 0-21.215 4.052-29.038 10.74C301.508 69.074 280.55 54 256.126 54c-24.454 0-45.434 15.113-54.124 36.484-7.835-6.736-18.012-10.822-29.132-10.822-24.679 0-44.756 20.077-44.756 44.756V147.547c0 15.158 7.582 28.571 19.145 36.671v3.19l-17.791 4.25c-21.242 5.075-36.078 23.872-36.078 45.712v18.676c0 5.523 4.478 10 10 10h45.952a62.577 62.577 0 0 0-.12 3.661v35.958c0 5.523 4.478 10 10 10h60.11c5.522 0 10-4.477 10-10s-4.478-10-10-10H209V275c0-5.523-4.478-10-10-10s-10 4.477-10 10v20.667h-19.777v-25.958c0-19.287 13.1-35.896 31.854-40.39l27.442-6.576 18.365 41.782a10 10 0 0 0 9.153 5.976h.001a10 10 0 0 0 9.154-5.975l18.346-41.72 27.355 6.535c18.772 4.485 31.883 21.096 31.883 40.397v25.929h-19.777V275c0-5.523-4.478-10-10-10s-10 4.477-10 10v20.667h-11.333c-5.522 0-10 4.477-10 10s4.478 10 10 10h61.111c5.522 0 10-4.477 10-10v-35.929c0-1.239-.05-2.467-.122-3.69h46.082c5.522 0 10-4.477 10-10v-18.676c0-21.84-14.836-40.638-36.079-45.712zm-43.402-91.998c13.102 0 23.858 10.231 24.702 23.123h-13.903a72.889 72.889 0 0 1-33.529-8.172c3.803-8.788 12.561-14.951 22.73-14.951zM314.5 146.087c.012-.487.037-.972.037-1.462v-8.906a92.891 92.891 0 0 0 35.518 7.066h13.957v4.763c0 13.65-11.105 24.756-24.756 24.756S314.5 161.198 314.5 147.547v-1.46zm-96.784-33.677c0-21.179 17.23-38.41 38.41-38.41 19.103 0 34.992 14.018 37.926 32.306l-16.835-9.891a9.998 9.998 0 0 0-12.73 2.2 43.084 43.084 0 0 1-33.102 15.449h-13.669v-1.654zm-44.845-12.748c10.169 0 18.926 6.164 22.73 14.95a72.892 72.892 0 0 1-33.529 8.172h-13.903c.844-12.891 11.601-23.122 24.702-23.122zm-24.756 43.122h13.957a92.895 92.895 0 0 0 35.555-7.081v11.843c0 13.65-11.105 24.756-24.756 24.756s-24.756-11.104-24.756-24.755v-4.763zm48.302 67.085c-19.674 4.714-35.136 18.431-42.495 36.178H113.39v-8.676a26.911 26.911 0 0 1 20.725-26.26l25.468-6.084a10 10 0 0 0 7.677-9.726v-3.362c1.84.231 3.71.364 5.611.364 1.887 0 3.744-.131 5.57-.359v2.853a9.992 9.992 0 0 0 4.562 8.858 9.951 9.951 0 0 0 3.553 1.428l14.917 3.574-5.056 1.212zm27.894-15.524a46.92 46.92 0 0 0-8.007-2.7l-17.864-4.281v-3.116a45.122 45.122 0 0 0 8.667-7.918 58.871 58.871 0 0 0 17.204 17.244v.771zm43.432 14.693-11.702 26.615-11.729-26.683v-7.136a58.455 58.455 0 0 0 11.814 1.202 58.45 58.45 0 0 0 11.617-1.164v7.166zm-11.617-26.003c-21.18.001-38.41-17.23-38.41-38.41v-10.562h13.669c15.858 0 30.936-5.897 42.492-16.415l20.622 12.116v16.324c-.772 20.503-17.683 36.947-38.373 36.947zm31.617 11.342v-.677a58.851 58.851 0 0 0 17.347-17.286 45.113 45.113 0 0 0 8.594 7.834v3.116l-17.865 4.281a47.089 47.089 0 0 0-8.076 2.732zm110.993 51.67h-40.67c-7.366-17.747-22.839-31.456-42.525-36.159l-5.021-1.199 14.997-3.594a9.987 9.987 0 0 0 3.605-1.44 9.991 9.991 0 0 0 4.562-8.643v-3.068c1.827.228 3.683.359 5.57.359a44.99 44.99 0 0 0 5.611-.364v3.362a10 10 0 0 0 7.677 9.726l25.468 6.084a26.913 26.913 0 0 1 20.726 26.26v8.676z" fill="#ff390e" data-original="#000000" class=""></path><path d="M263.069 298.59a10.08 10.08 0 0 0-7.069-2.92c-2.641 0-5.21 1.06-7.07 2.92a10.056 10.056 0 0 0-2.93 7.08c0 2.63 1.06 5.2 2.93 7.07 1.86 1.86 4.43 2.93 7.07 2.93 2.63 0 5.2-1.07 7.069-2.93a10.094 10.094 0 0 0 2.931-7.07c0-2.64-1.07-5.21-2.931-7.08zM255.993 0c-5.522 0-10 4.477-10 10v14.963c0 5.523 4.478 10 10 10s10-4.477 10-10V10c0-5.523-4.477-10-10-10zM219.157 32.619l-10.49-10.48c-3.907-3.904-10.238-3.901-14.142.006-3.904 3.907-3.9 10.239.007 14.142l10.491 10.48a9.966 9.966 0 0 0 7.067 2.926 9.97 9.97 0 0 0 7.074-2.932c3.902-3.907 3.9-10.239-.007-14.142zM317.222 22.395c-3.907-3.903-10.24-3.901-14.142.007l-10.409 10.419c-3.903 3.907-3.9 10.239.007 14.142a9.968 9.968 0 0 0 7.068 2.926 9.966 9.966 0 0 0 7.074-2.933l10.409-10.419c3.903-3.907 3.9-10.239-.007-14.142z" fill="#ff390e" data-original="#000000" class=""></path></g></svg>