<svg xmlns="http://www.w3.org/2000/svg" version="1.1" xmlns:xlink="http://www.w3.org/1999/xlink" xmlns:svgjs="http://svgjs.com/svgjs" width="512" height="512" x="0" y="0" viewBox="0 0 512 512" style="enable-background:new 0 0 512 512" xml:space="preserve" class=""><g><path d="M250 132.5a7.5 7.5 0 0 0 0-15h-98.971a7.5 7.5 0 0 0 0 15zM109.529 176a7.5 7.5 0 0 0 7.5 7.5H284c4.143 0 7.5-3.358 7.5-7.5s-3.357-7.5-7.5-7.5H117.029a7.5 7.5 0 0 0-7.5 7.5zM117.029 218.5H284c4.143 0 7.5-3.358 7.5-7.5s-3.357-7.5-7.5-7.5H117.029a7.5 7.5 0 0 0 0 15zM117.029 288.5H174a7.5 7.5 0 0 0 0-15h-56.971a7.5 7.5 0 0 0 0 15z" fill="#ff390e" data-original="#000000" class=""></path><path d="M454.488 334.482a7.5 7.5 0 0 0 7.5-7.5v-33.704a13.14 13.14 0 0 0-6.259-11.239l-36.07-22.341V10.5c0-5.79-4.71-10.5-10.5-10.5H129.153c-5.79 0-10.5 4.71-10.5 10.5v23.821H94.832c-5.79 0-10.5 4.71-10.5 10.5v23.821h-23.82c-5.79 0-10.5 4.71-10.5 10.5V462.11c0 5.79 4.71 10.5 10.5 10.5H116a7.5 7.5 0 0 0 0-15H65.012V83.642h271.006v137.971l-45.59 28.237A7.453 7.453 0 0 0 291.5 246a7.5 7.5 0 0 0-7.5-7.5H117.029a7.5 7.5 0 0 0 0 15H284c.197 0 .389-.015.582-.029L252.244 273.5H198a7.5 7.5 0 0 0 0 15h35.091a13.244 13.244 0 0 0-.893 4.779V308.5H117.029a7.5 7.5 0 0 0 0 15h115.168v20H117.029a7.5 7.5 0 0 0 0 15h115.168v17.68c0 .775.012 1.548.032 2.32h-115.2a7.5 7.5 0 0 0 0 15h116.825a90.906 90.906 0 0 0 30.34 51.985l14.228 12.125H151a7.5 7.5 0 0 0 0 15h145.024l42.495 36.214c2.483 2.117 5.529 3.175 8.574 3.175s6.091-1.059 8.574-3.175l74.325-63.34a90.923 90.923 0 0 0 31.996-69.305v-14.197c0-4.142-3.357-7.5-7.5-7.5s-7.5 3.358-7.5 7.5v14.197a75.945 75.945 0 0 1-26.725 57.888l-73.171 62.356-73.17-62.356a75.945 75.945 0 0 1-26.725-57.888v-81.91l99.895-61.873 99.896 61.873v32.712a7.5 7.5 0 0 0 7.5 7.501zM351.018 217.68V79.142c0-5.79-4.71-10.5-10.5-10.5H99.332V49.321h271.007V102c0 4.142 3.357 7.5 7.5 7.5s7.5-3.358 7.5-7.5V44.821c0-5.79-4.71-10.5-10.5-10.5H133.653V15h271.006v235.408l-19.32-11.967V137c0-4.142-3.357-7.5-7.5-7.5s-7.5 3.358-7.5 7.5v92.151l-16.286-10.087a13.332 13.332 0 0 0-3.035-1.384z" fill="#ff390e" data-original="#000000" class=""></path><path d="M278.394 350.73c0 37.881 30.818 68.7 68.699 68.7 37.882 0 68.7-30.818 68.7-68.7s-30.818-68.7-68.7-68.7c-37.881 0-68.699 30.819-68.699 68.7zm122.399 0c0 29.61-24.09 53.7-53.7 53.7-29.609 0-53.699-24.089-53.699-53.7s24.09-53.7 53.699-53.7c29.61 0 53.7 24.09 53.7 53.7z" fill="#ff390e" data-original="#000000" class=""></path><path d="M331.69 343.329c-2.928-2.929-7.677-2.929-10.606 0s-2.929 7.678 0 10.606l18.098 18.097c1.465 1.464 3.385 2.197 5.304 2.197s3.839-.732 5.304-2.197l28.051-28.051a7.5 7.5 0 0 0-10.607-10.606l-22.747 22.748z" fill="#ff390e" data-original="#000000" class=""></path></g></svg>