<svg xmlns="http://www.w3.org/2000/svg" version="1.1" xmlns:xlink="http://www.w3.org/1999/xlink" xmlns:svgjs="http://svgjs.com/svgjs" width="512" height="512" x="0" y="0" viewBox="0 0 682.667 682.667" style="enable-background:new 0 0 512 512" xml:space="preserve" class=""><g><defs><clipPath id="a" clipPathUnits="userSpaceOnUse"><path d="M0 512h512V0H0Z" fill="#ff390e" data-original="#000000"></path></clipPath></defs><g clip-path="url(#a)" transform="matrix(1.33333 0 0 -1.33333 0 682.667)"><path d="M0 0s-12.411 107.349-144.263 158.849v-41.01M0 0s12.411 107.349 144.263 158.849v-41.011" style="stroke-width:15;stroke-linecap:round;stroke-linejoin:round;stroke-miterlimit:10;stroke-dasharray:none;stroke-opacity:1" transform="translate(256 345.651)" fill="none" stroke="#ff390e" stroke-width="15" stroke-linecap="round" stroke-linejoin="round" stroke-miterlimit="10" stroke-dasharray="none" stroke-opacity="" data-original="#060606" class=""></path><path d="M0 0c-45.127 23.786-84.056 32.707-84.056 32.707l-27.395-27.838" style="stroke-width:15;stroke-linecap:round;stroke-linejoin:round;stroke-miterlimit:10;stroke-dasharray:none;stroke-opacity:1" transform="translate(146.139 447.422)" fill="none" stroke="#ff390e" stroke-width="15" stroke-linecap="round" stroke-linejoin="round" stroke-miterlimit="10" stroke-dasharray="none" stroke-opacity="" data-original="#060606" class=""></path><path d="M0 0c-17.951 32.074-43.714 57.22-70.673 76.641" style="stroke-width:15;stroke-linecap:round;stroke-linejoin:round;stroke-miterlimit:10;stroke-dasharray:none;stroke-opacity:1" transform="translate(257.59 345.651)" fill="none" stroke="#ff390e" stroke-width="15" stroke-linecap="round" stroke-linejoin="round" stroke-miterlimit="10" stroke-dasharray="none" stroke-opacity="" data-original="#060606" class=""></path><path d="M0 0c57.572 102.868 195.506 134.478 195.506 134.478l27.396-27.838" style="stroke-width:15;stroke-linecap:round;stroke-linejoin:round;stroke-miterlimit:10;stroke-dasharray:none;stroke-opacity:1" transform="translate(254.41 345.651)" fill="none" stroke="#ff390e" stroke-width="15" stroke-linecap="round" stroke-linejoin="round" stroke-miterlimit="10" stroke-dasharray="none" stroke-opacity="" data-original="#060606" class=""></path><path d="M0 0h-47.333c-5.523 0-10 4.478-10 10v318.151c0 5.523 4.477 10 10 10H0c5.523 0 10-4.477 10-10V10C10 4.478 5.523 0 0 0Z" style="stroke-width:15;stroke-linecap:round;stroke-linejoin:round;stroke-miterlimit:10;stroke-dasharray:none;stroke-opacity:1" transform="translate(279.666 7.5)" fill="none" stroke="#ff390e" stroke-width="15" stroke-linecap="round" stroke-linejoin="round" stroke-miterlimit="10" stroke-dasharray="none" stroke-opacity="" data-original="#060606" class=""></path><path d="M289.667 277.435h-67.333v33.333h67.333zM289.667 42.383h-67.333v33.334h67.333z" style="stroke-width:15;stroke-linecap:round;stroke-linejoin:round;stroke-miterlimit:10;stroke-dasharray:none;stroke-opacity:1" fill="none" stroke="#ff390e" stroke-width="15" stroke-linecap="round" stroke-linejoin="round" stroke-miterlimit="10" stroke-dasharray="none" stroke-opacity="" data-original="#060606" class=""></path><path d="M0 0v-90" style="stroke-width:15;stroke-linecap:round;stroke-linejoin:round;stroke-miterlimit:10;stroke-dasharray:none;stroke-opacity:1" transform="translate(256 221.575)" fill="none" stroke="#ff390e" stroke-width="15" stroke-linecap="round" stroke-linejoin="round" stroke-miterlimit="10" stroke-dasharray="none" stroke-opacity="" data-original="#060606" class=""></path><path d="M0 0v-40.227a10 10 0 0 0-5.097-8.715l-193.334-108.75c-6.666-3.75-14.902 1.067-14.902 8.715v315.205a9.999 9.999 0 0 0 5.097 8.715l193.333 108.75C-8.236 287.442 0 282.626 0 274.978V48" style="stroke-width:15;stroke-linecap:round;stroke-linejoin:round;stroke-miterlimit:10;stroke-dasharray:none;stroke-opacity:1" transform="translate(503 173.575)" fill="none" stroke="#ff390e" stroke-width="15" stroke-linecap="round" stroke-linejoin="round" stroke-miterlimit="10" stroke-dasharray="none" stroke-opacity="" data-original="#060606" class=""></path><path d="m0 0-193.333 108.75a10 10 0 0 0-5.098 8.716V432.67c0 7.648 8.237 12.465 14.903 8.716L9.805 332.636a10.002 10.002 0 0 0 5.098-8.716V8.716C14.903 1.067 6.666-3.75 0 0Z" style="stroke-width:15;stroke-linecap:round;stroke-linejoin:round;stroke-miterlimit:10;stroke-dasharray:none;stroke-opacity:1" transform="translate(207.43 15.883)" fill="none" stroke="#ff390e" stroke-width="15" stroke-linecap="round" stroke-linejoin="round" stroke-miterlimit="10" stroke-dasharray="none" stroke-opacity="" data-original="#060606" class=""></path><path d="m0 0-140.005-80v48.351L0 48.351Z" style="stroke-width:15;stroke-linecap:round;stroke-linejoin:round;stroke-miterlimit:10;stroke-dasharray:none;stroke-opacity:1" transform="translate(466.336 326.169)" fill="none" stroke="#ff390e" stroke-width="15" stroke-linecap="round" stroke-linejoin="round" stroke-miterlimit="10" stroke-dasharray="none" stroke-opacity="" data-original="#060606" class=""></path></g></g></svg>