<svg width="81" height="25" viewBox="0 0 81 25" fill="none" xmlns="http://www.w3.org/2000/svg">
<path fill-rule="evenodd" clip-rule="evenodd" d="M22.0588 0H27.451V25H22.0588V0ZM0 10.049H5.39216V25H0V10.049ZM69.6078 0H64.2157V25H69.6078V0ZM75.2451 0H80.6373V25H75.2451V0ZM37.0667 0.000712692L33.3252 3.74219L54.5836 25.0006L58.325 21.2591L37.0667 0.000712692ZM40.7812 13.5625L44.5227 17.304L36.8697 24.957L33.1282 21.2155L40.7812 13.5625ZM58.429 3.74147L54.6875 0L47.0345 7.65302L50.776 11.3945L58.429 3.74147ZM0 0H11.0294H16.4216V5.63726L16.4216 15.9314H11.0294V5.63726H0V0Z" fill="white"/>
</svg>
