<svg width="148" height="47" viewBox="0 0 148 47" fill="none" xmlns="http://www.w3.org/2000/svg">
<path d="M69.3998 30C67.2531 30 65.4598 29.5 64.0198 28.5C62.5798 27.5 61.4931 26.14 60.7598 24.42C60.0398 22.7 59.6798 20.76 59.6798 18.6C59.6798 16.44 60.0398 14.5 60.7598 12.78C61.4798 11.06 62.5398 9.7 63.9398 8.7C65.3398 7.7 67.0664 7.2 69.1198 7.2C71.1864 7.2 72.9864 7.69333 74.5198 8.68C76.0531 9.66667 77.2398 11.02 78.0798 12.74C78.9331 14.4467 79.3598 16.4 79.3598 18.6C79.3598 20.76 78.9398 22.7 78.0998 24.42C77.2731 26.14 76.1131 27.5 74.6198 28.5C73.1264 29.5 71.3864 30 69.3998 30ZM58.7598 39V7.8H63.5598V22.6H64.2398V39H58.7598ZM68.5198 25.16C69.6931 25.16 70.6531 24.8667 71.3998 24.28C72.1464 23.6933 72.6998 22.9067 73.0598 21.92C73.4198 20.92 73.5998 19.8133 73.5998 18.6C73.5998 17.4 73.4131 16.3067 73.0398 15.32C72.6664 14.32 72.0864 13.5267 71.2998 12.94C70.5264 12.34 69.5331 12.04 68.3198 12.04C67.1864 12.04 66.2664 12.3133 65.5598 12.86C64.8664 13.4067 64.3598 14.1733 64.0398 15.16C63.7198 16.1467 63.5598 17.2933 63.5598 18.6C63.5598 19.9067 63.7198 21.0533 64.0398 22.04C64.3598 23.0267 64.8798 23.7933 65.5998 24.34C66.3331 24.8867 67.3064 25.16 68.5198 25.16Z" fill="white"/>
<path d="M84.1607 4.8V0H89.6007V4.8H84.1607ZM84.1607 29.4V7.8H89.6007V29.4H84.1607Z" fill="white"/>
<path d="M93.1966 29.4L100.917 18.48L93.3566 7.8H99.7566L104.077 14.2L108.317 7.8H114.717L107.157 18.48L114.917 29.4H108.517L104.077 22.76L99.5966 29.4H93.1966Z" fill="white"/>
<path d="M115.736 29.4L123.456 18.48L115.896 7.8H122.296L126.616 14.2L130.856 7.8H137.256L129.696 18.48L137.456 29.4H131.056L126.616 22.76L122.136 29.4H115.736Z" fill="white"/>
<path d="M141.075 4.8V0H146.515V4.8H141.075ZM141.075 29.4V7.8H146.515V29.4H141.075Z" fill="white"/>
<path d="M84.1198 46.4V34.88H88.7758C88.8878 34.88 89.0264 34.8853 89.1918 34.896C89.3571 34.9013 89.5144 34.9173 89.6638 34.944C90.3038 35.0453 90.8371 35.264 91.2638 35.6C91.6958 35.936 92.0184 36.36 92.2318 36.872C92.4451 37.384 92.5518 37.9493 92.5518 38.568C92.5518 39.192 92.4451 39.76 92.2318 40.272C92.0184 40.784 91.6958 41.208 91.2638 41.544C90.8371 41.88 90.3038 42.0987 89.6638 42.2C89.5144 42.2213 89.3544 42.2373 89.1838 42.248C89.0184 42.2587 88.8824 42.264 88.7758 42.264H85.7918V46.4H84.1198ZM85.7918 40.68H88.7118C88.8184 40.68 88.9358 40.6747 89.0638 40.664C89.1971 40.6533 89.3224 40.6347 89.4398 40.608C89.7811 40.528 90.0558 40.3813 90.2638 40.168C90.4718 39.9493 90.6211 39.6987 90.7118 39.416C90.8024 39.1333 90.8478 38.8507 90.8478 38.568C90.8478 38.2853 90.8024 38.0053 90.7118 37.728C90.6211 37.4453 90.4718 37.1973 90.2638 36.984C90.0558 36.7653 89.7811 36.616 89.4398 36.536C89.3224 36.504 89.1971 36.4827 89.0638 36.472C88.9358 36.4613 88.8184 36.456 88.7118 36.456H85.7918V40.68Z" fill="white"/>
<path d="M97.6336 46.64C96.7696 46.64 96.0203 46.4453 95.3856 46.056C94.751 45.6667 94.2603 45.1307 93.9136 44.448C93.5723 43.76 93.4016 42.968 93.4016 42.072C93.4016 41.1707 93.5776 40.3787 93.9296 39.696C94.2816 39.008 94.775 38.4747 95.4096 38.096C96.0443 37.712 96.7856 37.52 97.6336 37.52C98.4976 37.52 99.247 37.7147 99.8816 38.104C100.516 38.4933 101.007 39.0293 101.354 39.712C101.7 40.3947 101.874 41.1813 101.874 42.072C101.874 42.9733 101.698 43.768 101.346 44.456C100.999 45.1387 100.508 45.6747 99.8736 46.064C99.239 46.448 98.4923 46.64 97.6336 46.64ZM97.6336 45.064C98.4603 45.064 99.0763 44.7867 99.4816 44.232C99.8923 43.672 100.098 42.952 100.098 42.072C100.098 41.1707 99.8896 40.4507 99.4736 39.912C99.063 39.368 98.4496 39.096 97.6336 39.096C97.0736 39.096 96.6123 39.224 96.2496 39.48C95.887 39.7307 95.6176 40.08 95.4416 40.528C95.2656 40.9707 95.1776 41.4853 95.1776 42.072C95.1776 42.9787 95.3856 43.704 95.8016 44.248C96.2176 44.792 96.8283 45.064 97.6336 45.064Z" fill="white"/>
<path d="M103.472 46.4V37.76H104.96V39.856L104.752 39.584C104.858 39.3067 104.997 39.0533 105.168 38.824C105.338 38.5893 105.536 38.3973 105.76 38.248C105.978 38.088 106.221 37.9653 106.488 37.88C106.76 37.7893 107.037 37.736 107.32 37.72C107.602 37.6987 107.874 37.712 108.136 37.76V39.328C107.853 39.2533 107.538 39.232 107.192 39.264C106.85 39.296 106.536 39.4053 106.248 39.592C105.976 39.768 105.76 39.9813 105.6 40.232C105.445 40.4827 105.333 40.7627 105.264 41.072C105.194 41.376 105.16 41.6987 105.16 42.04V46.4H103.472Z" fill="white"/>
<path d="M114.443 46.4C113.899 46.5067 113.366 46.552 112.843 46.536C112.32 46.52 111.854 46.4187 111.443 46.232C111.032 46.0453 110.723 45.752 110.515 45.352C110.328 44.9947 110.227 44.632 110.211 44.264C110.2 43.8907 110.195 43.4693 110.195 43V35.36H111.875V42.92C111.875 43.2667 111.878 43.568 111.883 43.824C111.894 44.08 111.95 44.296 112.051 44.472C112.243 44.8027 112.547 44.992 112.963 45.04C113.384 45.0827 113.878 45.064 114.443 44.984V46.4ZM108.539 39.104V37.76H114.443V39.104H108.539Z" fill="white"/>
<path d="M116.897 46.4V37.456C116.897 37.2373 116.905 37.0053 116.921 36.76C116.937 36.5093 116.982 36.264 117.057 36.024C117.137 35.7787 117.267 35.5547 117.449 35.352C117.667 35.112 117.907 34.9413 118.169 34.84C118.43 34.7387 118.689 34.68 118.945 34.664C119.206 34.648 119.446 34.64 119.665 34.64H120.753V36.016H119.745C119.35 36.016 119.054 36.1147 118.857 36.312C118.665 36.504 118.569 36.7787 118.569 37.136V46.4H116.897ZM115.465 39.104V37.76H120.753V39.104H115.465Z" fill="white"/>
<path d="M125.306 46.64C124.442 46.64 123.693 46.4453 123.058 46.056C122.423 45.6667 121.933 45.1307 121.586 44.448C121.245 43.76 121.074 42.968 121.074 42.072C121.074 41.1707 121.25 40.3787 121.602 39.696C121.954 39.008 122.447 38.4747 123.082 38.096C123.717 37.712 124.458 37.52 125.306 37.52C126.17 37.52 126.919 37.7147 127.554 38.104C128.189 38.4933 128.679 39.0293 129.026 39.712C129.373 40.3947 129.546 41.1813 129.546 42.072C129.546 42.9733 129.37 43.768 129.018 44.456C128.671 45.1387 128.181 45.6747 127.546 46.064C126.911 46.448 126.165 46.64 125.306 46.64ZM125.306 45.064C126.133 45.064 126.749 44.7867 127.154 44.232C127.565 43.672 127.77 42.952 127.77 42.072C127.77 41.1707 127.562 40.4507 127.146 39.912C126.735 39.368 126.122 39.096 125.306 39.096C124.746 39.096 124.285 39.224 123.922 39.48C123.559 39.7307 123.29 40.08 123.114 40.528C122.938 40.9707 122.85 41.4853 122.85 42.072C122.85 42.9787 123.058 43.704 123.474 44.248C123.89 44.792 124.501 45.064 125.306 45.064Z" fill="white"/>
<path d="M131.304 46.4V34.64H132.976V46.4H131.304Z" fill="white"/>
<path d="M135.379 36.344V34.72H137.051V36.344H135.379ZM135.379 46.4V37.76H137.051V46.4H135.379Z" fill="white"/>
<path d="M143.045 46.64C142.181 46.64 141.432 46.4453 140.797 46.056C140.162 45.6667 139.672 45.1307 139.325 44.448C138.984 43.76 138.813 42.968 138.813 42.072C138.813 41.1707 138.989 40.3787 139.341 39.696C139.693 39.008 140.186 38.4747 140.821 38.096C141.456 37.712 142.197 37.52 143.045 37.52C143.909 37.52 144.658 37.7147 145.293 38.104C145.928 38.4933 146.418 39.0293 146.765 39.712C147.112 40.3947 147.285 41.1813 147.285 42.072C147.285 42.9733 147.109 43.768 146.757 44.456C146.41 45.1387 145.92 45.6747 145.285 46.064C144.65 46.448 143.904 46.64 143.045 46.64ZM143.045 45.064C143.872 45.064 144.488 44.7867 144.893 44.232C145.304 43.672 145.509 42.952 145.509 42.072C145.509 41.1707 145.301 40.4507 144.885 39.912C144.474 39.368 143.861 39.096 143.045 39.096C142.485 39.096 142.024 39.224 141.661 39.48C141.298 39.7307 141.029 40.08 140.853 40.528C140.677 40.9707 140.589 41.4853 140.589 42.072C140.589 42.9787 140.797 43.704 141.213 44.248C141.629 44.792 142.24 45.064 143.045 45.064Z" fill="white"/>
<path style="mix-blend-mode:multiply" opacity="0.5" d="M17.5403 45.7485C16.6811 45.5412 15.835 45.2831 15.0064 44.9756C14.8247 44.9099 14.6444 44.8468 14.4653 44.7682L14.2605 44.6844C14.1317 44.6342 14.0157 44.5827 13.8947 44.5299L15.0064 35.9092L17.5403 45.7485Z" fill="url(#paint0_linear_438_445)"/>
<path d="M45.998 23.4007C46.0057 28.1771 44.5193 32.8364 41.7469 36.7259C41.4592 37.1287 41.1586 37.522 40.8452 37.9059C39.7999 39.1914 38.6191 40.3606 37.3232 41.3931L37.1235 41.5502C35.4241 42.8761 33.5463 43.9559 31.5456 44.7579C30.9195 45.0095 30.2802 45.2332 29.6275 45.429C29.0624 45.6008 28.4883 45.7489 27.9051 45.8735C27.1293 46.0439 26.345 46.1729 25.5554 46.2599C24.7063 46.3536 23.8526 46.4005 22.9984 46.4003C21.3147 46.4011 19.636 46.2175 17.9924 45.8528L17.87 45.8258L17.5389 45.7472C16.6798 45.5399 15.8336 45.2818 15.005 44.9743C14.8234 44.9086 14.643 44.8455 14.464 44.7669L14.2592 44.6831C14.1303 44.6329 14.0144 44.5814 13.8933 44.5286C11.9275 43.6807 10.0903 42.5615 8.43518 41.2037C8.34372 41.129 8.25225 41.053 8.16079 40.9731C7.7228 40.606 7.29769 40.2182 6.88933 39.8137C6.22033 39.1577 5.59222 38.4611 5.00855 37.7281C4.73459 37.3846 4.46965 37.0321 4.21373 36.6705C2.12723 33.7167 0.766744 30.3124 0.242721 26.7341C-0.281301 23.1559 0.0459157 19.5044 1.1978 16.0764C2.34969 12.6483 4.29378 9.54016 6.87222 7.00436C9.45066 4.46856 12.5908 2.57657 16.0376 1.48201C19.4844 0.387441 23.1408 0.121156 26.7098 0.704773C30.2788 1.28839 33.6599 2.70545 36.5786 4.84091C39.4972 6.97637 41.8711 9.77002 43.5075 12.995C45.1439 16.2201 45.9967 19.7855 45.9967 23.402L45.998 23.4007Z" fill="#FF390E"/>
<path style="mix-blend-mode:multiply" opacity="0.5" d="M41.7882 10.1359C40.1946 12.5925 34.9916 17.3666 20.0986 11.4486C10.2207 7.52598 4.60408 10.9874 1.47632 15.2849C2.95074 11.3762 5.46169 7.94292 8.73969 5.35335C12.0177 2.76378 15.939 1.11573 20.0827 0.586056C24.2264 0.0563863 28.4362 0.6651 32.2602 2.34687C36.0842 4.02864 39.378 6.71997 41.7882 10.132V10.1359Z" fill="url(#paint1_linear_438_445)"/>
<path style="mix-blend-mode:multiply" opacity="0.5" d="M41.7882 10.1357C43.6997 12.8362 45.002 15.9194 45.6051 19.1725C41.9982 12.2754 26.881 13.0625 19.8539 0.622322C20.8967 0.478088 21.9482 0.404921 23.001 0.403327C26.6834 0.400564 30.3124 1.28331 33.5821 2.97713C36.8518 4.67094 39.6663 7.12616 41.7882 10.1357Z" fill="url(#paint2_linear_438_445)"/>
<path style="mix-blend-mode:multiply" opacity="0.5" d="M23.001 10.3232C20.6025 10.3231 18.2501 10.982 16.2007 12.2282C14.1513 13.4743 12.4838 15.2597 11.3804 17.3892C10.2769 19.5188 9.77988 21.9107 9.94362 24.3036C10.1074 26.6965 10.9256 28.9983 12.3088 30.9577C12.454 31.1621 12.6047 31.3627 12.761 31.5593C13.0938 31.9758 13.4513 32.372 13.8315 32.7458C14.1123 33.0214 14.406 33.2855 14.7113 33.5341C15.7117 34.3545 16.8283 35.0218 18.0246 35.5141L18.1406 35.5618C18.768 35.8128 19.414 36.0144 20.0729 36.1647L20.1424 36.1801C21.0775 36.3883 22.0327 36.4929 22.9907 36.4919C23.4765 36.4919 23.9621 36.4653 24.445 36.412C24.8944 36.3635 25.3408 36.2904 25.7822 36.193C26.1133 36.1209 26.4405 36.0371 26.7612 35.9354C27.1322 35.8229 27.4964 35.694 27.8536 35.5489C28.9918 35.0932 30.06 34.4791 31.0265 33.7248L31.1398 33.6346C31.8775 33.0475 32.5495 32.3823 33.1443 31.6508C33.3221 31.4335 33.4938 31.2098 33.6596 30.9796C35.0473 29.0225 35.8703 26.7214 36.0386 24.3281C36.2069 21.9348 35.714 19.5413 34.6139 17.4091C33.5137 15.277 31.8486 13.4883 29.8005 12.2387C27.7524 10.989 25.4002 10.3264 23.001 10.3232ZM28.7476 27.4925C28.6588 27.6213 28.5673 27.7359 28.4707 27.8532C28.151 28.248 27.789 28.6065 27.3912 28.9224L27.3306 28.9713C26.8098 29.3776 26.2343 29.7085 25.6212 29.9542C25.4292 30.0315 25.2347 30.0998 25.0325 30.1603C24.8598 30.2119 24.6834 30.2569 24.5043 30.2956C24.2665 30.3477 24.0261 30.3873 23.7842 30.4141C23.5241 30.4426 23.2626 30.4568 23.001 30.4566C22.485 30.4568 21.9705 30.4007 21.4667 30.2892L21.4281 30.2814C21.0724 30.1995 20.7236 30.0906 20.3846 29.9555L20.3215 29.9297C19.6767 29.6647 19.075 29.3052 18.536 28.8631C18.3724 28.7343 18.214 28.5874 18.0633 28.438C17.8577 28.2355 17.665 28.0204 17.4861 27.7939C17.4003 27.6883 17.3191 27.5801 17.2427 27.4693C16.4972 26.4131 16.0564 25.1723 15.9687 23.8825C15.881 22.5927 16.1497 21.3036 16.7453 20.1563C17.341 19.0089 18.2407 18.0475 19.346 17.377C20.4514 16.7066 21.7198 16.3531 23.0126 16.3552C24.3054 16.3572 25.5727 16.7147 26.6759 17.3885C27.7792 18.0624 28.6759 19.0267 29.2679 20.1759C29.86 21.3251 30.1246 22.615 30.0328 23.9045C29.9411 25.1941 29.4965 26.4335 28.7476 27.4873V27.4925Z" fill="url(#paint3_linear_438_445)"/>
<path d="M23.001 8.56348C19.0655 8.56348 15.2911 10.1269 12.5083 12.9097C9.72548 15.6925 8.16211 19.4668 8.16211 23.4023V40.9696C8.25357 41.0495 8.34503 41.1255 8.4365 41.2002C10.0916 42.558 11.9289 43.6772 13.8946 44.525C14.0157 44.5779 14.1381 44.6294 14.2605 44.6796L14.4653 44.7634C14.6444 44.8355 14.8247 44.9051 15.0064 44.9708V35.9031C15.7528 36.3823 16.5409 36.7932 17.3612 37.1307L17.49 37.1848C18.2035 37.4704 18.9383 37.6995 19.6877 37.8702L19.7663 37.8882C21.3677 38.2413 23.0163 38.3283 24.646 38.1459C25.1555 38.0906 25.6616 38.0081 26.1622 37.8985C26.5384 37.8126 26.9089 37.7169 27.2739 37.6112C27.6939 37.485 28.1066 37.3407 28.5119 37.1784C29.8024 36.6606 31.0136 35.9637 32.1099 35.1083L32.2387 35.0065C33.075 34.3408 33.8369 33.5867 34.5111 32.7573C34.7133 32.5099 34.9079 32.2562 35.0921 31.996C36.6688 29.7763 37.6046 27.1657 37.7967 24.4498C37.9889 21.7339 37.4302 19.0175 36.1817 16.598C34.9332 14.1784 33.0431 12.149 30.7183 10.7319C28.3935 9.31476 25.7236 8.56459 23.001 8.56348ZM29.518 28.0347C29.4175 28.1738 29.3132 28.3117 29.205 28.4444C28.8417 28.8916 28.4309 29.298 27.9799 29.6566L27.9103 29.7107C27.3217 30.1712 26.6712 30.5468 25.978 30.8263C25.7603 30.9139 25.5374 30.9912 25.312 31.0594C25.1153 31.1187 24.9157 31.1702 24.713 31.214C24.4432 31.2714 24.1706 31.3144 23.8963 31.3428C23.6011 31.3754 23.3044 31.3917 23.0074 31.3918C22.4192 31.3946 21.8325 31.3323 21.258 31.2063L21.2155 31.1973C20.8117 31.1055 20.4159 30.9818 20.0316 30.8275L19.9595 30.7992C19.2288 30.4982 18.5468 30.0906 17.9357 29.5896C17.7494 29.4376 17.5703 29.277 17.3985 29.1078C17.1657 28.8797 16.9472 28.6375 16.7441 28.3825C16.6488 28.2627 16.5574 28.1404 16.4685 28.0154C15.6226 26.8177 15.1225 25.4104 15.0227 23.9476C14.9229 22.4847 15.2274 21.0226 15.9028 19.7211C16.5782 18.4196 17.5985 17.329 18.8521 16.5685C20.1057 15.8079 21.5444 15.4068 23.0106 15.409C24.4769 15.4112 25.9143 15.8165 27.1657 16.5808C28.417 17.345 29.4341 18.4387 30.1056 19.7421C30.7772 21.0456 31.0773 22.5086 30.9732 23.9712C30.8691 25.4337 30.3648 26.8395 29.5154 28.0347H29.518Z" fill="#141414"/>
<defs>
<linearGradient id="paint0_linear_438_445" x1="13.8947" y1="40.825" x2="17.5403" y2="40.825" gradientUnits="userSpaceOnUse">
<stop/>
<stop offset="1" stop-color="white" stop-opacity="0"/>
</linearGradient>
<linearGradient id="paint1_linear_438_445" x1="8.6001" y1="20.6618" x2="31.3627" y2="3.41532" gradientUnits="userSpaceOnUse">
<stop stop-color="#9F6E01"/>
<stop offset="1" stop-color="white" stop-opacity="0"/>
</linearGradient>
<linearGradient id="paint2_linear_438_445" x1="26.8102" y1="-5.04579" x2="40.1354" y2="27.104" gradientUnits="userSpaceOnUse">
<stop stop-color="#EDAB00"/>
<stop offset="1" stop-color="white" stop-opacity="0"/>
</linearGradient>
<linearGradient id="paint3_linear_438_445" x1="23.001" y1="36.7882" x2="23.001" y2="23.2375" gradientUnits="userSpaceOnUse">
<stop/>
<stop offset="1" stop-color="white" stop-opacity="0"/>
</linearGradient>
</defs>
</svg>
