<svg width="148" height="47" viewBox="0 0 148 47" fill="none" xmlns="http://www.w3.org/2000/svg">
<path d="M69.3998 30C67.2531 30 65.4598 29.5 64.0198 28.5C62.5798 27.5 61.4931 26.14 60.7598 24.42C60.0398 22.7 59.6798 20.76 59.6798 18.6C59.6798 16.44 60.0398 14.5 60.7598 12.78C61.4798 11.06 62.5398 9.7 63.9398 8.7C65.3398 7.7 67.0664 7.2 69.1198 7.2C71.1864 7.2 72.9864 7.69333 74.5198 8.68C76.0531 9.66667 77.2398 11.02 78.0798 12.74C78.9331 14.4467 79.3598 16.4 79.3598 18.6C79.3598 20.76 78.9398 22.7 78.0998 24.42C77.2731 26.14 76.1131 27.5 74.6198 28.5C73.1264 29.5 71.3864 30 69.3998 30ZM58.7598 39V7.8H63.5598V22.6H64.2398V39H58.7598ZM68.5198 25.16C69.6931 25.16 70.6531 24.8667 71.3998 24.28C72.1464 23.6933 72.6998 22.9067 73.0598 21.92C73.4198 20.92 73.5998 19.8133 73.5998 18.6C73.5998 17.4 73.4131 16.3067 73.0398 15.32C72.6664 14.32 72.0864 13.5267 71.2998 12.94C70.5264 12.34 69.5331 12.04 68.3198 12.04C67.1864 12.04 66.2664 12.3133 65.5598 12.86C64.8664 13.4067 64.3598 14.1733 64.0398 15.16C63.7198 16.1467 63.5598 17.2933 63.5598 18.6C63.5598 19.9067 63.7198 21.0533 64.0398 22.04C64.3598 23.0267 64.8798 23.7933 65.5998 24.34C66.3331 24.8867 67.3064 25.16 68.5198 25.16Z" fill="#141414"/>
<path d="M84.1607 4.8V0H89.6007V4.8H84.1607ZM84.1607 29.4V7.8H89.6007V29.4H84.1607Z" fill="#141414"/>
<path d="M93.1966 29.4L100.917 18.48L93.3566 7.8H99.7566L104.077 14.2L108.317 7.8H114.717L107.157 18.48L114.917 29.4H108.517L104.077 22.76L99.5966 29.4H93.1966Z" fill="#141414"/>
<path d="M115.736 29.4L123.456 18.48L115.896 7.8H122.296L126.616 14.2L130.856 7.8H137.256L129.696 18.48L137.456 29.4H131.056L126.616 22.76L122.136 29.4H115.736Z" fill="#141414"/>
<path d="M141.075 4.8V0H146.515V4.8H141.075ZM141.075 29.4V7.8H146.515V29.4H141.075Z" fill="#141414"/>
<path d="M84.1198 46.4V34.88H88.7758C88.8878 34.88 89.0264 34.8853 89.1918 34.896C89.3571 34.9013 89.5144 34.9173 89.6638 34.944C90.3038 35.0453 90.8371 35.264 91.2638 35.6C91.6958 35.936 92.0184 36.36 92.2318 36.872C92.4451 37.384 92.5518 37.9493 92.5518 38.568C92.5518 39.192 92.4451 39.76 92.2318 40.272C92.0184 40.784 91.6958 41.208 91.2638 41.544C90.8371 41.88 90.3038 42.0987 89.6638 42.2C89.5144 42.2213 89.3544 42.2373 89.1838 42.248C89.0184 42.2587 88.8824 42.264 88.7758 42.264H85.7918V46.4H84.1198ZM85.7918 40.68H88.7118C88.8184 40.68 88.9358 40.6747 89.0638 40.664C89.1971 40.6533 89.3224 40.6347 89.4398 40.608C89.7811 40.528 90.0558 40.3813 90.2638 40.168C90.4718 39.9493 90.6211 39.6987 90.7118 39.416C90.8024 39.1333 90.8478 38.8507 90.8478 38.568C90.8478 38.2853 90.8024 38.0053 90.7118 37.728C90.6211 37.4453 90.4718 37.1973 90.2638 36.984C90.0558 36.7653 89.7811 36.616 89.4398 36.536C89.3224 36.504 89.1971 36.4827 89.0638 36.472C88.9358 36.4613 88.8184 36.456 88.7118 36.456H85.7918V40.68Z" fill="#141414"/>
<path d="M97.6336 46.64C96.7696 46.64 96.0203 46.4453 95.3856 46.056C94.751 45.6667 94.2603 45.1307 93.9136 44.448C93.5723 43.76 93.4016 42.968 93.4016 42.072C93.4016 41.1707 93.5776 40.3787 93.9296 39.696C94.2816 39.008 94.775 38.4747 95.4096 38.096C96.0443 37.712 96.7856 37.52 97.6336 37.52C98.4976 37.52 99.247 37.7147 99.8816 38.104C100.516 38.4933 101.007 39.0293 101.354 39.712C101.7 40.3947 101.874 41.1813 101.874 42.072C101.874 42.9733 101.698 43.768 101.346 44.456C100.999 45.1387 100.508 45.6747 99.8736 46.064C99.239 46.448 98.4923 46.64 97.6336 46.64ZM97.6336 45.064C98.4603 45.064 99.0763 44.7867 99.4816 44.232C99.8923 43.672 100.098 42.952 100.098 42.072C100.098 41.1707 99.8896 40.4507 99.4736 39.912C99.063 39.368 98.4496 39.096 97.6336 39.096C97.0736 39.096 96.6123 39.224 96.2496 39.48C95.887 39.7307 95.6176 40.08 95.4416 40.528C95.2656 40.9707 95.1776 41.4853 95.1776 42.072C95.1776 42.9787 95.3856 43.704 95.8016 44.248C96.2176 44.792 96.8283 45.064 97.6336 45.064Z" fill="#141414"/>
<path d="M103.472 46.4V37.76H104.96V39.856L104.752 39.584C104.858 39.3067 104.997 39.0533 105.168 38.824C105.338 38.5893 105.536 38.3973 105.76 38.248C105.978 38.088 106.221 37.9653 106.488 37.88C106.76 37.7893 107.037 37.736 107.32 37.72C107.602 37.6987 107.874 37.712 108.136 37.76V39.328C107.853 39.2533 107.538 39.232 107.192 39.264C106.85 39.296 106.536 39.4053 106.248 39.592C105.976 39.768 105.76 39.9813 105.6 40.232C105.445 40.4827 105.333 40.7627 105.264 41.072C105.194 41.376 105.16 41.6987 105.16 42.04V46.4H103.472Z" fill="#141414"/>
<path d="M114.443 46.4C113.899 46.5067 113.366 46.552 112.843 46.536C112.32 46.52 111.854 46.4187 111.443 46.232C111.032 46.0453 110.723 45.752 110.515 45.352C110.328 44.9947 110.227 44.632 110.211 44.264C110.2 43.8907 110.195 43.4693 110.195 43V35.36H111.875V42.92C111.875 43.2667 111.878 43.568 111.883 43.824C111.894 44.08 111.95 44.296 112.051 44.472C112.243 44.8027 112.547 44.992 112.963 45.04C113.384 45.0827 113.878 45.064 114.443 44.984V46.4ZM108.539 39.104V37.76H114.443V39.104H108.539Z" fill="#141414"/>
<path d="M116.897 46.4V37.456C116.897 37.2373 116.905 37.0053 116.921 36.76C116.937 36.5093 116.982 36.264 117.057 36.024C117.137 35.7787 117.267 35.5547 117.449 35.352C117.667 35.112 117.907 34.9413 118.169 34.84C118.43 34.7387 118.689 34.68 118.945 34.664C119.206 34.648 119.446 34.64 119.665 34.64H120.753V36.016H119.745C119.35 36.016 119.054 36.1147 118.857 36.312C118.665 36.504 118.569 36.7787 118.569 37.136V46.4H116.897ZM115.465 39.104V37.76H120.753V39.104H115.465Z" fill="#141414"/>
<path d="M125.306 46.64C124.442 46.64 123.693 46.4453 123.058 46.056C122.423 45.6667 121.933 45.1307 121.586 44.448C121.245 43.76 121.074 42.968 121.074 42.072C121.074 41.1707 121.25 40.3787 121.602 39.696C121.954 39.008 122.447 38.4747 123.082 38.096C123.717 37.712 124.458 37.52 125.306 37.52C126.17 37.52 126.919 37.7147 127.554 38.104C128.189 38.4933 128.679 39.0293 129.026 39.712C129.373 40.3947 129.546 41.1813 129.546 42.072C129.546 42.9733 129.37 43.768 129.018 44.456C128.671 45.1387 128.181 45.6747 127.546 46.064C126.911 46.448 126.165 46.64 125.306 46.64ZM125.306 45.064C126.133 45.064 126.749 44.7867 127.154 44.232C127.565 43.672 127.77 42.952 127.77 42.072C127.77 41.1707 127.562 40.4507 127.146 39.912C126.735 39.368 126.122 39.096 125.306 39.096C124.746 39.096 124.285 39.224 123.922 39.48C123.559 39.7307 123.29 40.08 123.114 40.528C122.938 40.9707 122.85 41.4853 122.85 42.072C122.85 42.9787 123.058 43.704 123.474 44.248C123.89 44.792 124.501 45.064 125.306 45.064Z" fill="#141414"/>
<path d="M131.304 46.4V34.64H132.976V46.4H131.304Z" fill="#141414"/>
<path d="M135.379 36.344V34.72H137.051V36.344H135.379ZM135.379 46.4V37.76H137.051V46.4H135.379Z" fill="#141414"/>
<path d="M143.045 46.64C142.181 46.64 141.432 46.4453 140.797 46.056C140.162 45.6667 139.672 45.1307 139.325 44.448C138.984 43.76 138.813 42.968 138.813 42.072C138.813 41.1707 138.989 40.3787 139.341 39.696C139.693 39.008 140.186 38.4747 140.821 38.096C141.456 37.712 142.197 37.52 143.045 37.52C143.909 37.52 144.658 37.7147 145.293 38.104C145.928 38.4933 146.418 39.0293 146.765 39.712C147.112 40.3947 147.285 41.1813 147.285 42.072C147.285 42.9733 147.109 43.768 146.757 44.456C146.41 45.1387 145.92 45.6747 145.285 46.064C144.65 46.448 143.904 46.64 143.045 46.64ZM143.045 45.064C143.872 45.064 144.488 44.7867 144.893 44.232C145.304 43.672 145.509 42.952 145.509 42.072C145.509 41.1707 145.301 40.4507 144.885 39.912C144.474 39.368 143.861 39.096 143.045 39.096C142.485 39.096 142.024 39.224 141.661 39.48C141.298 39.7307 141.029 40.08 140.853 40.528C140.677 40.9707 140.589 41.4853 140.589 42.072C140.589 42.9787 140.797 43.704 141.213 44.248C141.629 44.792 142.24 45.064 143.045 45.064Z" fill="#141414"/>
<path style="mix-blend-mode:multiply" opacity="0.5" d="M17.5403 45.748C16.6811 45.5407 15.835 45.2826 15.0064 44.9751C14.8247 44.9094 14.6444 44.8463 14.4653 44.7677L14.2605 44.684C14.1317 44.6337 14.0157 44.5822 13.8947 44.5294L15.0064 35.9087L17.5403 45.748Z" fill="url(#paint0_linear_430_253)"/>
<path d="M45.998 23.4002C46.0057 28.1766 44.5193 32.8359 41.7469 36.7254C41.4592 37.1282 41.1586 37.5215 40.8452 37.9054C39.7999 39.191 38.6191 40.3601 37.3232 41.3926L37.1235 41.5497C35.4241 42.8756 33.5463 43.9554 31.5456 44.7574C30.9195 45.009 30.2802 45.2327 29.6275 45.4285C29.0624 45.6003 28.4883 45.7484 27.9051 45.873C27.1293 46.0434 26.345 46.1724 25.5554 46.2594C24.7063 46.3531 23.8526 46.4 22.9984 46.3998C21.3147 46.4006 19.636 46.2171 17.9924 45.8523L17.87 45.8253L17.5389 45.7467C16.6798 45.5394 15.8336 45.2813 15.005 44.9738C14.8234 44.9081 14.643 44.845 14.464 44.7664L14.2592 44.6827C14.1303 44.6324 14.0144 44.5809 13.8933 44.5281C11.9275 43.6802 10.0903 42.561 8.43518 41.2032C8.34372 41.1285 8.25225 41.0525 8.16079 40.9726C7.7228 40.6055 7.29769 40.2177 6.88933 39.8132C6.22033 39.1572 5.59222 38.4607 5.00855 37.7276C4.73459 37.3841 4.46965 37.0316 4.21373 36.67C2.12723 33.7162 0.766744 30.3119 0.242721 26.7336C-0.281301 23.1554 0.0459157 19.504 1.1978 16.0759C2.34969 12.6478 4.29378 9.53967 6.87222 7.00387C9.45066 4.46807 12.5908 2.57608 16.0376 1.48152C19.4844 0.386953 23.1408 0.120668 26.7098 0.704284C30.2788 1.2879 33.6599 2.70497 36.5786 4.84042C39.4972 6.97588 41.8711 9.76954 43.5075 12.9946C45.1439 16.2196 45.9967 19.7851 45.9967 23.4015L45.998 23.4002Z" fill="#FFAE00"/>
<path style="mix-blend-mode:multiply" opacity="0.5" d="M41.7882 10.1354C40.1946 12.592 34.9916 17.3661 20.0986 11.4481C10.2207 7.5255 4.60408 10.9869 1.47632 15.2844C2.95074 11.3758 5.46169 7.94244 8.73969 5.35287C12.0177 2.76329 15.939 1.11524 20.0827 0.585568C24.2264 0.055898 28.4362 0.664611 32.2602 2.34638C36.0842 4.02815 39.378 6.71948 41.7882 10.1315V10.1354Z" fill="url(#paint1_linear_430_253)"/>
<path style="mix-blend-mode:multiply" opacity="0.5" d="M41.7882 10.1352C43.6997 12.8357 45.002 15.919 45.6051 19.172C41.9982 12.2749 26.881 13.062 19.8539 0.621834C20.8967 0.4776 21.9482 0.404432 23.001 0.402838C26.6834 0.400076 30.3124 1.28282 33.5821 2.97664C36.8518 4.67045 39.6663 7.12567 41.7882 10.1352Z" fill="url(#paint2_linear_430_253)"/>
<path style="mix-blend-mode:multiply" opacity="0.5" d="M23.001 10.3223C20.6025 10.3221 18.2501 10.9811 16.2008 12.2272C14.1514 13.4733 12.4839 15.2587 11.3804 17.3883C10.277 19.5178 9.77994 21.9097 9.94368 24.3026C10.1074 26.6955 10.9256 28.9973 12.3089 30.9568C12.454 31.1611 12.6048 31.3617 12.7611 31.5583C13.0939 31.9749 13.4513 32.3711 13.8316 32.7448C14.1124 33.0205 14.4061 33.2845 14.7114 33.5332C15.7117 34.3535 16.8283 35.0208 18.0247 35.5131L18.1406 35.5608C18.768 35.8118 19.4141 36.0134 20.0729 36.1637L20.1425 36.1791C21.0776 36.3874 22.0327 36.4919 22.9907 36.4909C23.4766 36.491 23.9621 36.4643 24.4451 36.411C24.8945 36.3625 25.3409 36.2894 25.7823 36.192C26.1133 36.1199 26.4405 36.0362 26.7613 35.9344C27.1323 35.8219 27.4964 35.6931 27.8537 35.5479C28.9919 35.0922 30.06 34.4781 31.0265 33.7238L31.1399 33.6336C31.8776 33.0465 32.5496 32.3813 33.1444 31.6498C33.3221 31.4325 33.4939 31.2088 33.6596 30.9787C35.0474 29.0215 35.8704 26.7205 36.0387 24.3271C36.207 21.9338 35.7141 19.5403 34.6139 17.4082C33.5137 15.276 31.8486 13.4874 29.8005 12.2377C27.7525 10.988 25.4003 10.3254 23.001 10.3223ZM28.7477 27.4915C28.6588 27.6203 28.5674 27.735 28.4707 27.8522C28.1511 28.247 27.7891 28.6055 27.3912 28.9214L27.3307 28.9703C26.8099 29.3766 26.2344 29.7075 25.6212 29.9532C25.4293 30.0305 25.2348 30.0988 25.0325 30.1594C24.8599 30.2109 24.6834 30.256 24.5044 30.2946C24.2666 30.3467 24.0262 30.3863 23.7842 30.4131C23.5241 30.4416 23.2627 30.4558 23.001 30.4556C22.485 30.4559 21.9706 30.3997 21.4668 30.2882L21.4281 30.2804C21.0725 30.1986 20.7237 30.0896 20.3847 29.9545L20.3215 29.9288C19.6768 29.6637 19.075 29.3043 18.5361 28.8621C18.3725 28.7333 18.214 28.5865 18.0633 28.437C17.8578 28.2345 17.665 28.0194 17.4862 27.7929C17.4003 27.6873 17.3192 27.5791 17.2427 27.4683C16.4972 26.4121 16.0565 25.1713 15.9688 23.8815C15.8811 22.5917 16.1497 21.3027 16.7454 20.1553C17.341 19.0079 18.2408 18.0465 19.3461 17.3761C20.4515 16.7057 21.7199 16.3521 23.0127 16.3542C24.3054 16.3562 25.5727 16.7137 26.676 17.3876C27.7792 18.0614 28.6759 19.0257 29.268 20.1749C29.86 21.3242 30.1247 22.6141 30.0329 23.9036C29.9411 25.1931 29.4965 26.4325 28.7477 27.4863V27.4915Z" fill="url(#paint3_linear_430_253)"/>
<path d="M23.001 8.5625C19.0655 8.5625 15.2911 10.1259 12.5083 12.9087C9.72548 15.6915 8.16211 19.4658 8.16211 23.4014V40.9686C8.25357 41.0485 8.34503 41.1245 8.4365 41.1992C10.0916 42.557 11.9289 43.6762 13.8946 44.5241C14.0157 44.5769 14.1381 44.6284 14.2605 44.6787L14.4653 44.7624C14.6444 44.8345 14.8247 44.9041 15.0064 44.9698V35.9021C15.7528 36.3813 16.5409 36.7922 17.3612 37.1298L17.49 37.1839C18.2035 37.4694 18.9383 37.6985 19.6877 37.8692L19.7663 37.8872C21.3677 38.2403 23.0163 38.3273 24.646 38.1449C25.1555 38.0896 25.6616 38.0071 26.1622 37.8975C26.5384 37.8117 26.9089 37.7159 27.2739 37.6103C27.6939 37.484 28.1066 37.3397 28.5119 37.1774C29.8024 36.6597 31.0136 35.9628 32.1099 35.1073L32.2387 35.0055C33.075 34.3399 33.8369 33.5857 34.5111 32.7563C34.7133 32.509 34.9079 32.2552 35.0921 31.995C36.6688 29.7754 37.6046 27.1647 37.7967 24.4488C37.9889 21.7329 37.4302 19.0165 36.1817 16.597C34.9332 14.1774 33.0431 12.148 30.7183 10.7309C28.3935 9.31378 25.7236 8.56361 23.001 8.5625ZM29.518 28.0337C29.4175 28.1729 29.3132 28.3107 29.205 28.4434C28.8417 28.8906 28.4309 29.2971 27.9799 29.6556L27.9103 29.7097C27.3217 30.1703 26.6712 30.5458 25.978 30.8253C25.7603 30.9129 25.5374 30.9902 25.312 31.0584C25.1153 31.1177 24.9157 31.1692 24.713 31.213C24.4432 31.2704 24.1706 31.3134 23.8963 31.3419C23.6011 31.3744 23.3044 31.3908 23.0074 31.3908C22.4192 31.3936 21.8325 31.3314 21.258 31.2053L21.2155 31.1963C20.8117 31.1045 20.4159 30.9809 20.0316 30.8266L19.9595 30.7982C19.2288 30.4973 18.5468 30.0896 17.9357 29.5886C17.7494 29.4366 17.5703 29.276 17.3985 29.1068C17.1657 28.8787 16.9472 28.6365 16.7441 28.3816C16.6488 28.2618 16.5574 28.1394 16.4685 28.0144C15.6226 26.8167 15.1225 25.4095 15.0227 23.9466C14.9229 22.4837 15.2274 21.0216 15.9028 19.7201C16.5782 18.4187 17.5985 17.328 18.8521 16.5675C20.1057 15.807 21.5444 15.4058 23.0106 15.408C24.4769 15.4102 25.9143 15.8156 27.1657 16.5798C28.417 17.344 29.4341 18.4377 30.1056 19.7412C30.7772 21.0446 31.0773 22.5076 30.9732 23.9702C30.8691 25.4328 30.3648 26.8385 29.5154 28.0337H29.518Z" fill="white"/>
<defs>
<linearGradient id="paint0_linear_430_253" x1="13.8947" y1="40.8245" x2="17.5403" y2="40.8245" gradientUnits="userSpaceOnUse">
<stop/>
<stop offset="1" stop-color="white" stop-opacity="0"/>
</linearGradient>
<linearGradient id="paint1_linear_430_253" x1="8.6001" y1="20.6613" x2="31.3627" y2="3.41483" gradientUnits="userSpaceOnUse">
<stop stop-color="#9F6E01"/>
<stop offset="1" stop-color="white" stop-opacity="0"/>
</linearGradient>
<linearGradient id="paint2_linear_430_253" x1="26.8102" y1="-5.04627" x2="40.1354" y2="27.1035" gradientUnits="userSpaceOnUse">
<stop stop-color="#EDAB00"/>
<stop offset="1" stop-color="white" stop-opacity="0"/>
</linearGradient>
<linearGradient id="paint3_linear_430_253" x1="23.001" y1="36.7872" x2="23.001" y2="23.2365" gradientUnits="userSpaceOnUse">
<stop/>
<stop offset="1" stop-color="white" stop-opacity="0"/>
</linearGradient>
</defs>
</svg>
