<svg width="71" height="20" viewBox="0 0 71 20" fill="none" xmlns="http://www.w3.org/2000/svg">
<path d="M22.272 18.568C22.272 18.904 22.136 19.072 21.864 19.072C21.288 19.072 20.712 19.064 20.136 19.048C19.576 19.032 19.016 19.024 18.456 19.024C17.912 19.024 17.368 19.032 16.824 19.048C16.28 19.08 15.736 19.096 15.192 19.096C15.032 19.096 14.92 19.048 14.856 18.952C14.792 18.84 14.76 18.72 14.76 18.592C14.76 18.464 14.808 18.368 14.904 18.304C15.016 18.224 15.128 18.184 15.24 18.184C15.384 18.184 15.528 18.192 15.672 18.208C15.816 18.224 15.96 18.232 16.104 18.232C16.136 18.232 16.176 18.232 16.224 18.232C16.272 18.232 16.312 18.232 16.344 18.232C16.616 18.2 16.76 18.048 16.776 17.776C16.808 17.488 16.824 17.248 16.824 17.056V4.576C15.912 6.848 14.984 9.112 14.04 11.368C13.112 13.608 12.2 15.872 11.304 18.16H9.432C8.52 15.792 7.576 13.44 6.6 11.104C5.64 8.768 4.696 6.416 3.768 4.048C3.768 6.24 3.784 8.432 3.816 10.624C3.848 12.8 3.864 14.984 3.864 17.176C3.864 17.368 3.872 17.6 3.888 17.872C3.92 18.128 4.072 18.256 4.344 18.256C4.552 18.256 4.752 18.248 4.944 18.232C5.136 18.216 5.336 18.208 5.544 18.208C5.656 18.208 5.752 18.256 5.832 18.352C5.912 18.432 5.952 18.528 5.952 18.64C5.952 18.72 5.92 18.816 5.856 18.928C5.792 19.024 5.712 19.072 5.616 19.072C5.328 19.072 5.04 19.064 4.752 19.048C4.464 19.032 4.176 19.024 3.888 19.024C3.376 19.024 2.856 19.032 2.328 19.048C1.8 19.064 1.28 19.072 0.768 19.072C0.608 19.072 0.504 19.032 0.456 18.952C0.408 18.856 0.384 18.736 0.384 18.592C0.384 18.464 0.432 18.368 0.528 18.304C0.64 18.24 0.744 18.208 0.84 18.208C0.984 18.208 1.128 18.216 1.272 18.232C1.432 18.248 1.584 18.256 1.728 18.256C2 18.256 2.192 18.224 2.304 18.16C2.432 18.08 2.496 17.888 2.496 17.584C2.496 15.152 2.504 12.72 2.52 10.288C2.552 7.84 2.568 5.4 2.568 2.968C2.568 2.712 2.52 2.528 2.424 2.416C2.344 2.288 2.168 2.224 1.896 2.224C1.736 2.224 1.576 2.232 1.416 2.248C1.256 2.264 1.096 2.272 0.936 2.272C0.808 2.272 0.696 2.224 0.6 2.128C0.504 2.032 0.456 1.92 0.456 1.792C0.456 1.488 0.616 1.336 0.936 1.336C1.32 1.336 1.704 1.344 2.088 1.36C2.488 1.376 2.88 1.384 3.264 1.384C3.728 1.384 4.192 1.384 4.656 1.384C5.136 1.384 5.608 1.36 6.072 1.312L11.424 14.56C12.288 12.368 13.192 10.192 14.136 8.032C15.096 5.856 15.936 3.64 16.656 1.384C17.024 1.4 17.392 1.416 17.76 1.432C18.144 1.432 18.528 1.432 18.912 1.432C19.408 1.432 19.904 1.416 20.4 1.384C20.912 1.352 21.416 1.336 21.912 1.336C22.04 1.336 22.128 1.392 22.176 1.504C22.224 1.6 22.248 1.696 22.248 1.792C22.248 1.888 22.224 2 22.176 2.128C22.128 2.24 22.04 2.296 21.912 2.296C21.688 2.296 21.456 2.296 21.216 2.296C20.992 2.28 20.768 2.272 20.544 2.272C20.384 2.272 20.264 2.344 20.184 2.488C20.12 2.616 20.088 2.752 20.088 2.896C20.088 3.824 20.08 4.768 20.064 5.728C20.064 6.672 20.064 7.616 20.064 8.56C20.064 9.968 20.064 11.376 20.064 12.784C20.08 14.192 20.088 15.6 20.088 17.008C20.088 17.152 20.096 17.32 20.112 17.512C20.144 17.704 20.2 17.88 20.28 18.04C20.376 18.184 20.52 18.256 20.712 18.256C20.904 18.256 21.096 18.248 21.288 18.232C21.48 18.216 21.68 18.208 21.888 18.208C21.984 18.208 22.072 18.24 22.152 18.304C22.232 18.368 22.272 18.456 22.272 18.568Z" fill="#FF390E"/>
<path d="M30.7504 16.456C30.7024 15.704 30.6704 14.952 30.6544 14.2C30.6384 13.432 30.6384 12.664 30.6544 11.896C29.9984 12.008 29.3584 12.216 28.7344 12.52C28.1264 12.808 27.6224 13.2 27.2224 13.696C26.8224 14.192 26.6224 14.824 26.6224 15.592C26.6224 15.912 26.6624 16.256 26.7424 16.624C26.8384 16.992 26.9984 17.304 27.2224 17.56C27.4624 17.8 27.7824 17.92 28.1824 17.92C28.4704 17.92 28.7744 17.84 29.0944 17.68C29.4144 17.504 29.7184 17.304 30.0064 17.08C30.3104 16.856 30.5584 16.648 30.7504 16.456ZM35.6944 17.872C35.6944 17.936 35.6624 18.008 35.5984 18.088C35.5504 18.168 35.5024 18.232 35.4544 18.28C34.9584 18.856 34.3184 19.144 33.5344 19.144C32.8464 19.144 32.2944 18.992 31.8784 18.688C31.4624 18.384 31.1424 17.912 30.9184 17.272C30.4064 17.816 29.8544 18.248 29.2624 18.568C28.6864 18.888 28.0064 19.048 27.2224 19.048C26.6624 19.048 26.0944 18.928 25.5184 18.688C24.9584 18.432 24.4864 18.072 24.1024 17.608C23.7344 17.144 23.5504 16.608 23.5504 16C23.5504 15.392 23.7024 14.856 24.0064 14.392C24.3264 13.912 24.7264 13.504 25.2064 13.168C25.6864 12.816 26.1744 12.528 26.6704 12.304C27.3104 12.032 27.9664 11.824 28.6384 11.68C29.3104 11.52 29.9824 11.36 30.6544 11.2V11.104C30.6544 10.816 30.6464 10.432 30.6304 9.952C30.6304 9.456 30.5824 8.968 30.4864 8.488C30.3904 7.992 30.2304 7.576 30.0064 7.24C29.7824 6.888 29.4544 6.712 29.0224 6.712C28.5264 6.712 28.0784 6.856 27.6784 7.144C27.2944 7.432 27.0224 7.816 26.8624 8.296C26.8304 8.44 26.8064 8.584 26.7904 8.728C26.7744 8.856 26.7504 8.992 26.7184 9.136C26.6864 9.392 26.5344 9.568 26.2624 9.664C26.0064 9.744 25.7664 9.784 25.5424 9.784C25.2704 9.784 25.0064 9.728 24.7504 9.616C24.4944 9.488 24.3664 9.256 24.3664 8.92C24.3664 8.792 24.3824 8.68 24.4144 8.584C24.4624 8.472 24.5104 8.36 24.5584 8.248C24.8144 7.64 25.1984 7.192 25.7104 6.904C26.2224 6.616 26.7824 6.424 27.3904 6.328C28.0144 6.232 28.6064 6.184 29.1664 6.184C30.4784 6.184 31.5584 6.536 32.4064 7.24C33.2544 7.944 33.6784 8.984 33.6784 10.36V13.984C33.6624 14.432 33.6544 14.896 33.6544 15.376C33.6704 15.84 33.6944 16.304 33.7264 16.768C33.7584 17.04 33.8224 17.304 33.9184 17.56C34.0144 17.8 34.2304 17.92 34.5664 17.92C34.7904 17.92 34.9744 17.872 35.1184 17.776C35.2784 17.68 35.4224 17.632 35.5504 17.632C35.6144 17.632 35.6544 17.664 35.6704 17.728C35.6864 17.792 35.6944 17.84 35.6944 17.872ZM47.2371 14.896C47.2371 15.216 47.1971 15.544 47.1171 15.88C47.0531 16.216 47.0051 16.544 46.9731 16.864C46.9571 17.12 46.9331 17.424 46.9011 17.776C46.8691 18.128 46.8291 18.424 46.7811 18.664C46.7651 18.856 46.6611 18.952 46.4691 18.952C45.4771 18.952 44.4771 18.944 43.4691 18.928C42.4771 18.912 41.4851 18.904 40.4931 18.904C39.8051 18.904 39.1091 18.92 38.4051 18.952C37.7011 18.968 36.9971 18.976 36.2931 18.976C36.1811 18.976 36.0851 18.936 36.0051 18.856C35.9251 18.776 35.8851 18.68 35.8851 18.568C35.8851 18.52 35.9491 18.408 36.0771 18.232C36.2051 18.04 36.3571 17.832 36.5331 17.608C36.7091 17.384 36.8691 17.176 37.0131 16.984C37.1731 16.792 37.2771 16.656 37.3251 16.576C37.6291 16.112 37.9411 15.656 38.2611 15.208C38.5971 14.76 38.9171 14.304 39.2211 13.84C39.8451 12.88 40.4611 11.904 41.0691 10.912C41.6931 9.92 42.2771 8.92 42.8211 7.912C42.8851 7.816 42.9411 7.72 42.9891 7.624C43.0371 7.512 43.0611 7.4 43.0611 7.288C43.0611 7.064 42.9331 6.936 42.6771 6.904C42.5171 6.872 42.3411 6.856 42.1491 6.856C41.9571 6.856 41.7731 6.856 41.5971 6.856C41.2771 6.856 40.9411 6.864 40.5891 6.88C40.2371 6.896 39.9011 6.928 39.5811 6.976C39.1331 7.04 38.7891 7.184 38.5491 7.408C38.3091 7.616 38.0931 7.912 37.9011 8.296C37.8051 8.504 37.7171 8.72 37.6371 8.944C37.5731 9.152 37.5011 9.368 37.4211 9.592C37.3891 9.704 37.3411 9.808 37.2771 9.904C37.2291 10 37.1411 10.048 37.0131 10.048C36.7731 10.048 36.6531 9.904 36.6531 9.616V9.544C36.6691 9.176 36.6851 8.816 36.7011 8.464C36.7331 8.096 36.7571 7.736 36.7731 7.384C36.7891 7.208 36.7971 7.032 36.7971 6.856C36.8131 6.68 36.8291 6.512 36.8451 6.352C36.8611 6.192 36.9491 6.112 37.1091 6.112C37.2211 6.112 37.3331 6.136 37.4451 6.184C37.5571 6.216 37.6691 6.232 37.7811 6.232C38.3571 6.232 38.9411 6.24 39.5331 6.256C40.1411 6.256 40.7251 6.256 41.2851 6.256C41.9411 6.256 42.5971 6.256 43.2531 6.256C43.9091 6.24 44.5651 6.224 45.2211 6.208C45.4931 6.192 45.7651 6.176 46.0371 6.16C46.3251 6.144 46.6051 6.136 46.8771 6.136C47.0371 6.136 47.1171 6.24 47.1171 6.448C47.1171 6.56 47.0851 6.656 47.0211 6.736C46.7811 7.12 46.5251 7.504 46.2531 7.888C45.9811 8.272 45.7091 8.656 45.4371 9.04C44.9571 9.728 44.4691 10.424 43.9731 11.128C43.4771 11.832 43.0051 12.544 42.5571 13.264C42.4451 13.44 42.2531 13.736 41.9811 14.152C41.7091 14.552 41.4131 14.992 41.0931 15.472C40.7891 15.952 40.5251 16.392 40.3011 16.792C40.0771 17.176 39.9651 17.44 39.9651 17.584C39.9651 17.888 40.0211 18.072 40.1331 18.136C40.2451 18.2 40.4371 18.232 40.7091 18.232H41.5731C42.1491 18.248 42.7731 18.208 43.4451 18.112C44.1171 18.016 44.6771 17.76 45.1251 17.344C45.4451 17.024 45.7251 16.656 45.9651 16.24C46.2051 15.824 46.3891 15.416 46.5171 15.016C46.5491 14.936 46.5811 14.856 46.6131 14.776C46.6611 14.68 46.7331 14.632 46.8291 14.632C46.9091 14.632 46.9971 14.648 47.0931 14.68C47.1891 14.712 47.2371 14.784 47.2371 14.896ZM54.8563 18.712C54.8563 18.968 54.7283 19.096 54.4723 19.096C54.0083 19.096 53.5363 19.072 53.0563 19.024C52.5763 18.992 52.0963 18.976 51.6163 18.976C51.1363 18.976 50.6483 18.992 50.1523 19.024C49.6723 19.072 49.1923 19.096 48.7123 19.096C48.6003 19.096 48.5203 19.056 48.4723 18.976C48.4243 18.88 48.4003 18.792 48.4003 18.712C48.4003 18.456 48.5203 18.328 48.7603 18.328C48.9203 18.328 49.0723 18.336 49.2163 18.352C49.3603 18.368 49.5043 18.376 49.6483 18.376C49.8403 18.376 49.9603 18.312 50.0083 18.184C50.0723 18.056 50.1043 17.912 50.1043 17.752V8.224C50.1043 8.064 50.0883 7.888 50.0563 7.696C50.0243 7.488 49.8963 7.384 49.6723 7.384C49.4643 7.384 49.2483 7.4 49.0243 7.432C48.8003 7.464 48.5763 7.48 48.3523 7.48C48.2563 7.48 48.1603 7.456 48.0643 7.408C47.9843 7.36 47.9443 7.28 47.9443 7.168C47.9443 6.96 48.0483 6.824 48.2563 6.76C48.4323 6.728 48.6163 6.704 48.8083 6.688C49.0163 6.656 49.2083 6.632 49.3843 6.616C49.9443 6.536 50.4883 6.44 51.0163 6.328C51.5603 6.2 52.1043 6.072 52.6483 5.944C52.6963 5.944 52.7443 5.944 52.7923 5.944C52.8403 5.928 52.8803 5.92 52.9123 5.92C53.1523 5.92 53.2723 6.016 53.2723 6.208C53.2723 8.128 53.2643 10.056 53.2483 11.992C53.2323 13.912 53.2243 15.832 53.2243 17.752C53.2243 18.04 53.2883 18.224 53.4163 18.304C53.5443 18.368 53.7043 18.392 53.8963 18.376C54.1043 18.36 54.3123 18.352 54.5203 18.352C54.7443 18.352 54.8563 18.472 54.8563 18.712ZM53.3443 2.224C53.3443 2.72 53.1603 3.152 52.7923 3.52C52.4403 3.888 52.0083 4.072 51.4963 4.072C51.0003 4.072 50.5683 3.888 50.2003 3.52C49.8323 3.152 49.6483 2.72 49.6483 2.224C49.6483 1.712 49.8323 1.28 50.2003 0.927999C50.5683 0.559999 51.0003 0.375999 51.4963 0.375999C52.0083 0.375999 52.4403 0.559999 52.7923 0.927999C53.1603 1.28 53.3443 1.712 53.3443 2.224ZM70.1863 18.664C70.1863 18.92 70.0583 19.048 69.8023 19.048C69.3383 19.048 68.8663 19.032 68.3863 19C67.9223 18.984 67.4583 18.976 66.9943 18.976C66.5463 18.976 66.0903 18.984 65.6263 19C65.1623 19.032 64.6983 19.048 64.2343 19.048C64.1223 19.048 64.0423 19.008 63.9943 18.928C63.9463 18.832 63.9223 18.736 63.9223 18.64C63.9223 18.4 64.0503 18.28 64.3063 18.28C64.4503 18.28 64.5943 18.288 64.7383 18.304C64.8823 18.304 65.0263 18.304 65.1703 18.304C65.4103 18.304 65.5303 18.2 65.5303 17.992C65.5303 16.648 65.5303 15.304 65.5303 13.96C65.5463 12.616 65.5543 11.272 65.5543 9.928C65.5543 9.496 65.5143 9.048 65.4343 8.584C65.3703 8.12 65.2103 7.728 64.9543 7.408C64.7143 7.088 64.3143 6.928 63.7543 6.928C63.4023 6.928 63.0343 7.056 62.6503 7.312C62.2823 7.568 61.9463 7.872 61.6423 8.224C61.3543 8.576 61.1463 8.904 61.0183 9.208V17.704C61.0183 17.848 61.0343 17.984 61.0663 18.112C61.1143 18.24 61.2263 18.304 61.4023 18.304C61.5303 18.304 61.6583 18.304 61.7863 18.304C61.9303 18.288 62.0663 18.28 62.1943 18.28C62.2743 18.28 62.3543 18.312 62.4343 18.376C62.5143 18.44 62.5543 18.512 62.5543 18.592C62.5543 18.896 62.4263 19.048 62.1703 19.048C61.7223 19.048 61.2743 19.032 60.8263 19C60.3943 18.952 59.9463 18.928 59.4823 18.928C59.0023 18.928 58.5143 18.952 58.0183 19C57.5383 19.032 57.0503 19.048 56.5543 19.048C56.4423 19.048 56.3623 19.008 56.3143 18.928C56.2663 18.832 56.2423 18.736 56.2423 18.64C56.2423 18.4 56.3703 18.28 56.6263 18.28C56.7703 18.28 56.9143 18.288 57.0583 18.304C57.2023 18.304 57.3543 18.304 57.5143 18.304C57.7383 18.304 57.8663 18.256 57.8983 18.16C57.9303 18.064 57.9463 17.912 57.9463 17.704V14.224C57.9463 13.248 57.9463 12.272 57.9463 11.296C57.9463 10.32 57.9463 9.344 57.9463 8.368C57.9463 8.192 57.9223 8 57.8743 7.792C57.8263 7.568 57.6823 7.456 57.4423 7.456C57.2823 7.456 57.1223 7.464 56.9623 7.48C56.8183 7.496 56.6663 7.504 56.5063 7.504C56.4103 7.504 56.2983 7.488 56.1703 7.456C56.0583 7.408 56.0023 7.32 56.0023 7.192C56.0023 7.096 56.0343 7.024 56.0983 6.976C56.1623 6.928 56.2343 6.896 56.3143 6.88C56.4743 6.832 56.6423 6.8 56.8183 6.784C56.9943 6.768 57.1623 6.744 57.3223 6.712C57.7383 6.632 58.1463 6.544 58.5463 6.448C58.9623 6.336 59.3703 6.224 59.7703 6.112C59.8343 6.08 59.8983 6.056 59.9623 6.04C60.0263 6.008 60.0903 5.992 60.1543 5.992C60.2823 5.992 60.3943 6.112 60.4903 6.352C60.6023 6.592 60.6903 6.848 60.7543 7.12C60.8343 7.392 60.8823 7.584 60.8983 7.696C61.3623 7.28 61.9223 6.912 62.5783 6.592C63.2343 6.256 63.8823 6.088 64.5223 6.088C65.5943 6.088 66.4263 6.224 67.0183 6.496C67.6263 6.768 68.0583 7.224 68.3143 7.864C68.5703 8.488 68.6983 9.328 68.6983 10.384C68.6983 11.632 68.6903 12.88 68.6743 14.128C68.6583 15.376 68.6503 16.624 68.6503 17.872C68.6503 18.032 68.6983 18.152 68.7943 18.232C68.9063 18.296 69.0423 18.328 69.2023 18.328C69.3143 18.328 69.4183 18.32 69.5143 18.304C69.6263 18.288 69.7383 18.28 69.8503 18.28C70.0743 18.28 70.1863 18.408 70.1863 18.664Z" fill="white"/>
</svg>
