<svg width="71" height="35" viewBox="0 0 71 35" fill="none" xmlns="http://www.w3.org/2000/svg">
<path d="M22.272 27.568C22.272 27.904 22.136 28.072 21.864 28.072C21.288 28.072 20.712 28.064 20.136 28.048C19.576 28.032 19.016 28.024 18.456 28.024C17.912 28.024 17.368 28.032 16.824 28.048C16.28 28.08 15.736 28.096 15.192 28.096C15.032 28.096 14.92 28.048 14.856 27.952C14.792 27.84 14.76 27.72 14.76 27.592C14.76 27.464 14.808 27.368 14.904 27.304C15.016 27.224 15.128 27.184 15.24 27.184C15.384 27.184 15.528 27.192 15.672 27.208C15.816 27.224 15.96 27.232 16.104 27.232C16.136 27.232 16.176 27.232 16.224 27.232C16.272 27.232 16.312 27.232 16.344 27.232C16.616 27.2 16.76 27.048 16.776 26.776C16.808 26.488 16.824 26.248 16.824 26.056V13.576C15.912 15.848 14.984 18.112 14.04 20.368C13.112 22.608 12.2 24.872 11.304 27.16H9.432C8.52 24.792 7.576 22.44 6.6 20.104C5.64 17.768 4.696 15.416 3.768 13.048C3.768 15.24 3.784 17.432 3.816 19.624C3.848 21.8 3.864 23.984 3.864 26.176C3.864 26.368 3.872 26.6 3.888 26.872C3.92 27.128 4.072 27.256 4.344 27.256C4.552 27.256 4.752 27.248 4.944 27.232C5.136 27.216 5.336 27.208 5.544 27.208C5.656 27.208 5.752 27.256 5.832 27.352C5.912 27.432 5.952 27.528 5.952 27.64C5.952 27.72 5.92 27.816 5.856 27.928C5.792 28.024 5.712 28.072 5.616 28.072C5.328 28.072 5.04 28.064 4.752 28.048C4.464 28.032 4.176 28.024 3.888 28.024C3.376 28.024 2.856 28.032 2.328 28.048C1.8 28.064 1.28 28.072 0.768 28.072C0.608 28.072 0.504 28.032 0.456 27.952C0.408 27.856 0.384 27.736 0.384 27.592C0.384 27.464 0.432 27.368 0.528 27.304C0.64 27.24 0.744 27.208 0.84 27.208C0.984 27.208 1.128 27.216 1.272 27.232C1.432 27.248 1.584 27.256 1.728 27.256C2 27.256 2.192 27.224 2.304 27.16C2.432 27.08 2.496 26.888 2.496 26.584C2.496 24.152 2.504 21.72 2.52 19.288C2.552 16.84 2.568 14.4 2.568 11.968C2.568 11.712 2.52 11.528 2.424 11.416C2.344 11.288 2.168 11.224 1.896 11.224C1.736 11.224 1.576 11.232 1.416 11.248C1.256 11.264 1.096 11.272 0.936 11.272C0.808 11.272 0.696 11.224 0.6 11.128C0.504 11.032 0.456 10.92 0.456 10.792C0.456 10.488 0.616 10.336 0.936 10.336C1.32 10.336 1.704 10.344 2.088 10.36C2.488 10.376 2.88 10.384 3.264 10.384C3.728 10.384 4.192 10.384 4.656 10.384C5.136 10.384 5.608 10.36 6.072 10.312L11.424 23.56C12.288 21.368 13.192 19.192 14.136 17.032C15.096 14.856 15.936 12.64 16.656 10.384C17.024 10.4 17.392 10.416 17.76 10.432C18.144 10.432 18.528 10.432 18.912 10.432C19.408 10.432 19.904 10.416 20.4 10.384C20.912 10.352 21.416 10.336 21.912 10.336C22.04 10.336 22.128 10.392 22.176 10.504C22.224 10.6 22.248 10.696 22.248 10.792C22.248 10.888 22.224 11 22.176 11.128C22.128 11.24 22.04 11.296 21.912 11.296C21.688 11.296 21.456 11.296 21.216 11.296C20.992 11.28 20.768 11.272 20.544 11.272C20.384 11.272 20.264 11.344 20.184 11.488C20.12 11.616 20.088 11.752 20.088 11.896C20.088 12.824 20.08 13.768 20.064 14.728C20.064 15.672 20.064 16.616 20.064 17.56C20.064 18.968 20.064 20.376 20.064 21.784C20.08 23.192 20.088 24.6 20.088 26.008C20.088 26.152 20.096 26.32 20.112 26.512C20.144 26.704 20.2 26.88 20.28 27.04C20.376 27.184 20.52 27.256 20.712 27.256C20.904 27.256 21.096 27.248 21.288 27.232C21.48 27.216 21.68 27.208 21.888 27.208C21.984 27.208 22.072 27.24 22.152 27.304C22.232 27.368 22.272 27.456 22.272 27.568Z" fill="#FFAE00"/>
<path d="M30.7504 25.456C30.7024 24.704 30.6704 23.952 30.6544 23.2C30.6384 22.432 30.6384 21.664 30.6544 20.896C29.9984 21.008 29.3584 21.216 28.7344 21.52C28.1264 21.808 27.6224 22.2 27.2224 22.696C26.8224 23.192 26.6224 23.824 26.6224 24.592C26.6224 24.912 26.6624 25.256 26.7424 25.624C26.8384 25.992 26.9984 26.304 27.2224 26.56C27.4624 26.8 27.7824 26.92 28.1824 26.92C28.4704 26.92 28.7744 26.84 29.0944 26.68C29.4144 26.504 29.7184 26.304 30.0064 26.08C30.3104 25.856 30.5584 25.648 30.7504 25.456ZM35.6944 26.872C35.6944 26.936 35.6624 27.008 35.5984 27.088C35.5504 27.168 35.5024 27.232 35.4544 27.28C34.9584 27.856 34.3184 28.144 33.5344 28.144C32.8464 28.144 32.2944 27.992 31.8784 27.688C31.4624 27.384 31.1424 26.912 30.9184 26.272C30.4064 26.816 29.8544 27.248 29.2624 27.568C28.6864 27.888 28.0064 28.048 27.2224 28.048C26.6624 28.048 26.0944 27.928 25.5184 27.688C24.9584 27.432 24.4864 27.072 24.1024 26.608C23.7344 26.144 23.5504 25.608 23.5504 25C23.5504 24.392 23.7024 23.856 24.0064 23.392C24.3264 22.912 24.7264 22.504 25.2064 22.168C25.6864 21.816 26.1744 21.528 26.6704 21.304C27.3104 21.032 27.9664 20.824 28.6384 20.68C29.3104 20.52 29.9824 20.36 30.6544 20.2V20.104C30.6544 19.816 30.6464 19.432 30.6304 18.952C30.6304 18.456 30.5824 17.968 30.4864 17.488C30.3904 16.992 30.2304 16.576 30.0064 16.24C29.7824 15.888 29.4544 15.712 29.0224 15.712C28.5264 15.712 28.0784 15.856 27.6784 16.144C27.2944 16.432 27.0224 16.816 26.8624 17.296C26.8304 17.44 26.8064 17.584 26.7904 17.728C26.7744 17.856 26.7504 17.992 26.7184 18.136C26.6864 18.392 26.5344 18.568 26.2624 18.664C26.0064 18.744 25.7664 18.784 25.5424 18.784C25.2704 18.784 25.0064 18.728 24.7504 18.616C24.4944 18.488 24.3664 18.256 24.3664 17.92C24.3664 17.792 24.3824 17.68 24.4144 17.584C24.4624 17.472 24.5104 17.36 24.5584 17.248C24.8144 16.64 25.1984 16.192 25.7104 15.904C26.2224 15.616 26.7824 15.424 27.3904 15.328C28.0144 15.232 28.6064 15.184 29.1664 15.184C30.4784 15.184 31.5584 15.536 32.4064 16.24C33.2544 16.944 33.6784 17.984 33.6784 19.36V22.984C33.6624 23.432 33.6544 23.896 33.6544 24.376C33.6704 24.84 33.6944 25.304 33.7264 25.768C33.7584 26.04 33.8224 26.304 33.9184 26.56C34.0144 26.8 34.2304 26.92 34.5664 26.92C34.7904 26.92 34.9744 26.872 35.1184 26.776C35.2784 26.68 35.4224 26.632 35.5504 26.632C35.6144 26.632 35.6544 26.664 35.6704 26.728C35.6864 26.792 35.6944 26.84 35.6944 26.872ZM47.2371 23.896C47.2371 24.216 47.1971 24.544 47.1171 24.88C47.0531 25.216 47.0051 25.544 46.9731 25.864C46.9571 26.12 46.9331 26.424 46.9011 26.776C46.8691 27.128 46.8291 27.424 46.7811 27.664C46.7651 27.856 46.6611 27.952 46.4691 27.952C45.4771 27.952 44.4771 27.944 43.4691 27.928C42.4771 27.912 41.4851 27.904 40.4931 27.904C39.8051 27.904 39.1091 27.92 38.4051 27.952C37.7011 27.968 36.9971 27.976 36.2931 27.976C36.1811 27.976 36.0851 27.936 36.0051 27.856C35.9251 27.776 35.8851 27.68 35.8851 27.568C35.8851 27.52 35.9491 27.408 36.0771 27.232C36.2051 27.04 36.3571 26.832 36.5331 26.608C36.7091 26.384 36.8691 26.176 37.0131 25.984C37.1731 25.792 37.2771 25.656 37.3251 25.576C37.6291 25.112 37.9411 24.656 38.2611 24.208C38.5971 23.76 38.9171 23.304 39.2211 22.84C39.8451 21.88 40.4611 20.904 41.0691 19.912C41.6931 18.92 42.2771 17.92 42.8211 16.912C42.8851 16.816 42.9411 16.72 42.9891 16.624C43.0371 16.512 43.0611 16.4 43.0611 16.288C43.0611 16.064 42.9331 15.936 42.6771 15.904C42.5171 15.872 42.3411 15.856 42.1491 15.856C41.9571 15.856 41.7731 15.856 41.5971 15.856C41.2771 15.856 40.9411 15.864 40.5891 15.88C40.2371 15.896 39.9011 15.928 39.5811 15.976C39.1331 16.04 38.7891 16.184 38.5491 16.408C38.3091 16.616 38.0931 16.912 37.9011 17.296C37.8051 17.504 37.7171 17.72 37.6371 17.944C37.5731 18.152 37.5011 18.368 37.4211 18.592C37.3891 18.704 37.3411 18.808 37.2771 18.904C37.2291 19 37.1411 19.048 37.0131 19.048C36.7731 19.048 36.6531 18.904 36.6531 18.616V18.544C36.6691 18.176 36.6851 17.816 36.7011 17.464C36.7331 17.096 36.7571 16.736 36.7731 16.384C36.7891 16.208 36.7971 16.032 36.7971 15.856C36.8131 15.68 36.8291 15.512 36.8451 15.352C36.8611 15.192 36.9491 15.112 37.1091 15.112C37.2211 15.112 37.3331 15.136 37.4451 15.184C37.5571 15.216 37.6691 15.232 37.7811 15.232C38.3571 15.232 38.9411 15.24 39.5331 15.256C40.1411 15.256 40.7251 15.256 41.2851 15.256C41.9411 15.256 42.5971 15.256 43.2531 15.256C43.9091 15.24 44.5651 15.224 45.2211 15.208C45.4931 15.192 45.7651 15.176 46.0371 15.16C46.3251 15.144 46.6051 15.136 46.8771 15.136C47.0371 15.136 47.1171 15.24 47.1171 15.448C47.1171 15.56 47.0851 15.656 47.0211 15.736C46.7811 16.12 46.5251 16.504 46.2531 16.888C45.9811 17.272 45.7091 17.656 45.4371 18.04C44.9571 18.728 44.4691 19.424 43.9731 20.128C43.4771 20.832 43.0051 21.544 42.5571 22.264C42.4451 22.44 42.2531 22.736 41.9811 23.152C41.7091 23.552 41.4131 23.992 41.0931 24.472C40.7891 24.952 40.5251 25.392 40.3011 25.792C40.0771 26.176 39.9651 26.44 39.9651 26.584C39.9651 26.888 40.0211 27.072 40.1331 27.136C40.2451 27.2 40.4371 27.232 40.7091 27.232H41.5731C42.1491 27.248 42.7731 27.208 43.4451 27.112C44.1171 27.016 44.6771 26.76 45.1251 26.344C45.4451 26.024 45.7251 25.656 45.9651 25.24C46.2051 24.824 46.3891 24.416 46.5171 24.016C46.5491 23.936 46.5811 23.856 46.6131 23.776C46.6611 23.68 46.7331 23.632 46.8291 23.632C46.9091 23.632 46.9971 23.648 47.0931 23.68C47.1891 23.712 47.2371 23.784 47.2371 23.896ZM54.8563 27.712C54.8563 27.968 54.7283 28.096 54.4723 28.096C54.0083 28.096 53.5363 28.072 53.0563 28.024C52.5763 27.992 52.0963 27.976 51.6163 27.976C51.1363 27.976 50.6483 27.992 50.1523 28.024C49.6723 28.072 49.1923 28.096 48.7123 28.096C48.6003 28.096 48.5203 28.056 48.4723 27.976C48.4243 27.88 48.4003 27.792 48.4003 27.712C48.4003 27.456 48.5203 27.328 48.7603 27.328C48.9203 27.328 49.0723 27.336 49.2163 27.352C49.3603 27.368 49.5043 27.376 49.6483 27.376C49.8403 27.376 49.9603 27.312 50.0083 27.184C50.0723 27.056 50.1043 26.912 50.1043 26.752V17.224C50.1043 17.064 50.0883 16.888 50.0563 16.696C50.0243 16.488 49.8963 16.384 49.6723 16.384C49.4643 16.384 49.2483 16.4 49.0243 16.432C48.8003 16.464 48.5763 16.48 48.3523 16.48C48.2563 16.48 48.1603 16.456 48.0643 16.408C47.9843 16.36 47.9443 16.28 47.9443 16.168C47.9443 15.96 48.0483 15.824 48.2563 15.76C48.4323 15.728 48.6163 15.704 48.8083 15.688C49.0163 15.656 49.2083 15.632 49.3843 15.616C49.9443 15.536 50.4883 15.44 51.0163 15.328C51.5603 15.2 52.1043 15.072 52.6483 14.944C52.6963 14.944 52.7443 14.944 52.7923 14.944C52.8403 14.928 52.8803 14.92 52.9123 14.92C53.1523 14.92 53.2723 15.016 53.2723 15.208C53.2723 17.128 53.2643 19.056 53.2483 20.992C53.2323 22.912 53.2243 24.832 53.2243 26.752C53.2243 27.04 53.2883 27.224 53.4163 27.304C53.5443 27.368 53.7043 27.392 53.8963 27.376C54.1043 27.36 54.3123 27.352 54.5203 27.352C54.7443 27.352 54.8563 27.472 54.8563 27.712ZM53.3443 11.224C53.3443 11.72 53.1603 12.152 52.7923 12.52C52.4403 12.888 52.0083 13.072 51.4963 13.072C51.0003 13.072 50.5683 12.888 50.2003 12.52C49.8323 12.152 49.6483 11.72 49.6483 11.224C49.6483 10.712 49.8323 10.28 50.2003 9.928C50.5683 9.56 51.0003 9.376 51.4963 9.376C52.0083 9.376 52.4403 9.56 52.7923 9.928C53.1603 10.28 53.3443 10.712 53.3443 11.224ZM70.1863 27.664C70.1863 27.92 70.0583 28.048 69.8023 28.048C69.3383 28.048 68.8663 28.032 68.3863 28C67.9223 27.984 67.4583 27.976 66.9943 27.976C66.5463 27.976 66.0903 27.984 65.6263 28C65.1623 28.032 64.6983 28.048 64.2343 28.048C64.1223 28.048 64.0423 28.008 63.9943 27.928C63.9463 27.832 63.9223 27.736 63.9223 27.64C63.9223 27.4 64.0503 27.28 64.3063 27.28C64.4503 27.28 64.5943 27.288 64.7383 27.304C64.8823 27.304 65.0263 27.304 65.1703 27.304C65.4103 27.304 65.5303 27.2 65.5303 26.992C65.5303 25.648 65.5303 24.304 65.5303 22.96C65.5463 21.616 65.5543 20.272 65.5543 18.928C65.5543 18.496 65.5143 18.048 65.4343 17.584C65.3703 17.12 65.2103 16.728 64.9543 16.408C64.7143 16.088 64.3143 15.928 63.7543 15.928C63.4023 15.928 63.0343 16.056 62.6503 16.312C62.2823 16.568 61.9463 16.872 61.6423 17.224C61.3543 17.576 61.1463 17.904 61.0183 18.208V26.704C61.0183 26.848 61.0343 26.984 61.0663 27.112C61.1143 27.24 61.2263 27.304 61.4023 27.304C61.5303 27.304 61.6583 27.304 61.7863 27.304C61.9303 27.288 62.0663 27.28 62.1943 27.28C62.2743 27.28 62.3543 27.312 62.4343 27.376C62.5143 27.44 62.5543 27.512 62.5543 27.592C62.5543 27.896 62.4263 28.048 62.1703 28.048C61.7223 28.048 61.2743 28.032 60.8263 28C60.3943 27.952 59.9463 27.928 59.4823 27.928C59.0023 27.928 58.5143 27.952 58.0183 28C57.5383 28.032 57.0503 28.048 56.5543 28.048C56.4423 28.048 56.3623 28.008 56.3143 27.928C56.2663 27.832 56.2423 27.736 56.2423 27.64C56.2423 27.4 56.3703 27.28 56.6263 27.28C56.7703 27.28 56.9143 27.288 57.0583 27.304C57.2023 27.304 57.3543 27.304 57.5143 27.304C57.7383 27.304 57.8663 27.256 57.8983 27.16C57.9303 27.064 57.9463 26.912 57.9463 26.704V23.224C57.9463 22.248 57.9463 21.272 57.9463 20.296C57.9463 19.32 57.9463 18.344 57.9463 17.368C57.9463 17.192 57.9223 17 57.8743 16.792C57.8263 16.568 57.6823 16.456 57.4423 16.456C57.2823 16.456 57.1223 16.464 56.9623 16.48C56.8183 16.496 56.6663 16.504 56.5063 16.504C56.4103 16.504 56.2983 16.488 56.1703 16.456C56.0583 16.408 56.0023 16.32 56.0023 16.192C56.0023 16.096 56.0343 16.024 56.0983 15.976C56.1623 15.928 56.2343 15.896 56.3143 15.88C56.4743 15.832 56.6423 15.8 56.8183 15.784C56.9943 15.768 57.1623 15.744 57.3223 15.712C57.7383 15.632 58.1463 15.544 58.5463 15.448C58.9623 15.336 59.3703 15.224 59.7703 15.112C59.8343 15.08 59.8983 15.056 59.9623 15.04C60.0263 15.008 60.0903 14.992 60.1543 14.992C60.2823 14.992 60.3943 15.112 60.4903 15.352C60.6023 15.592 60.6903 15.848 60.7543 16.12C60.8343 16.392 60.8823 16.584 60.8983 16.696C61.3623 16.28 61.9223 15.912 62.5783 15.592C63.2343 15.256 63.8823 15.088 64.5223 15.088C65.5943 15.088 66.4263 15.224 67.0183 15.496C67.6263 15.768 68.0583 16.224 68.3143 16.864C68.5703 17.488 68.6983 18.328 68.6983 19.384C68.6983 20.632 68.6903 21.88 68.6743 23.128C68.6583 24.376 68.6503 25.624 68.6503 26.872C68.6503 27.032 68.6983 27.152 68.7943 27.232C68.9063 27.296 69.0423 27.328 69.2023 27.328C69.3143 27.328 69.4183 27.32 69.5143 27.304C69.6263 27.288 69.7383 27.28 69.8503 27.28C70.0743 27.28 70.1863 27.408 70.1863 27.664Z" fill="#111111"/>
</svg>
